<svg width="840" height="258" viewBox="0 0 840 258" fill="none" xmlns="http://www.w3.org/2000/svg">
<g clip-path="url(#clip0_3443_3356)">
<path d="M786.961 226.229C795.606 220.512 803.413 213.984 810.527 206.42C858.43 155.474 846.208 67.4318 786.444 32.2402C769.028 21.9886 750.646 15.91 730.442 16.3693C716.71 16.6821 710.229 24.6957 711.915 38.8466C713.542 52.5382 719.108 64.5 726.066 76.1002C737.898 95.8118 749.233 115.836 760.822 135.714C760.822 135.724 760.831 135.724 760.831 135.733C762.011 137.541 764.769 136.984 764.964 134.825C765.11 133.153 764.788 131.502 764.759 129.958C764.457 108.79 767.712 88.2771 774.983 68.458C776.864 63.3175 779.807 59.2032 785.762 61.4216C792.165 63.8061 791.454 69.0346 789.583 74.4975C777.098 110.95 778.823 147.461 789.612 183.884C791.162 189.102 792.175 194.106 786.483 196.725C780.987 199.246 777.527 195.709 774.759 190.94C751.904 151.575 728.815 112.338 706.116 72.885C699.498 61.3825 695.96 48.7561 696.106 35.1232C696.311 16.7407 703.27 7.33933 719.926 1.64183C720.219 1.53433 720.774 1.34864 721.076 1.26069C723.094 0.693871 725.355 0.283416 727.596 -0.00976562H9.58056C4.28835 7.1032e-06 0 4.37819 0 9.77274V248.227C0 253.622 4.28835 258 9.58056 258H719.458C679.138 254.824 646.937 234.77 624.559 198.963C591.013 145.301 599.609 78.7486 643.983 34.9668C650.289 28.7416 657.287 23.3959 664.753 18.6561C669.519 15.6266 673.817 14.7764 677.238 20.3664C680.785 26.1616 677.462 29.7091 672.979 32.5921C655.075 44.0946 641.186 59.3693 631.752 78.8268C611.119 121.368 618.789 172.753 650.396 206.449C671.76 229.229 697.432 241.963 728.522 241.963C743.951 241.963 750.237 234.819 748.639 219.017C747.498 207.68 743.152 197.478 737.421 187.763C724.858 166.459 712.539 145.008 700.083 123.625C699.245 122.179 698.601 120.429 695.453 119.53C695.561 135.372 695.356 150.52 692.442 165.491C690.765 174.091 688.066 182.34 685.356 190.588C683.553 196.07 679.723 198.885 674.051 196.598C668.3 194.282 668.963 189.64 670.62 184.705C682.959 148.028 682.052 111.311 670.659 74.6343C669.07 69.5134 668.144 64.4805 673.875 61.7343C679.879 58.8611 683.261 62.8387 686.116 67.725C708.026 105.37 729.994 142.965 751.904 180.62C757.742 190.656 761.913 201.435 764.028 212.84C764.749 216.749 766.357 220.463 768.862 223.502C772.517 227.949 778.54 231.809 786.961 226.229Z" fill="#D4437B"/>
<g clip-path="url(#clip1_3443_3356)">
<path d="M364.437 -14.8144C366.386 -5.89597 363.613 3.35705 360.071 11.7718C356.529 20.183 352.144 28.4004 350.654 37.4034C349.163 46.4063 351.228 56.7125 358.485 62.253C366.087 68.0577 376.921 67.0116 385.961 63.8838C395.001 60.7561 403.534 55.8214 413.011 54.5322C422.491 53.243 433.734 57.0506 436.783 66.1134C438.108 70.0478 437.699 74.3732 438.813 78.371C441.752 88.899 454.302 93.8795 465.221 93.2667C476.139 92.6538 486.445 88.103 497.24 86.3489C508.035 84.5948 520.765 86.5497 526.824 95.6513C536.548 110.258 522.577 131.025 529.573 147.119C534.109 157.552 547.008 162.733 558.163 160.486C569.317 158.239 578.509 149.856 584.13 139.969C589.755 130.081 592.268 118.757 594.157 107.542C600.582 69.3997 600.61 30.1897 594.235 -7.96003C592.991 -15.4096 591.359 -23.134 586.64 -29.0303C578.315 -39.4386 563.329 -40.9814 550.011 -41.5907C489.941 -44.3416 429.759 -44.7361 369.654 -42.7777C364.871 -42.6227 359.969 -42.4255 355.549 -40.5974C353.448 -39.7274 348.268 -36.8779 348.028 -34.1376C347.675 -30.0694 350.608 -31.0979 353.533 -29.2839C358.971 -25.906 363.035 -21.2355 364.437 -14.8144Z" fill="black" fill-opacity="0.05"/>
</g>
<g clip-path="url(#clip2_3443_3356)">
<path d="M-13.174 122.099C4.31977 108.606 37.5729 101.877 53.9747 120.163C69.343 137.298 73.4323 165.251 81.6826 182.771C88.0232 196.241 98.9113 213.963 143.241 218.778C165.552 221.202 166.523 242.314 164.065 256.564C155.549 310.768 32.3872 329.457 -8.77925 306.185C-53.0059 284.781 -65.1298 234.314 -56.3132 189.387C-48.0404 163.284 -35.53 138.037 -13.174 122.099Z" fill="black" fill-opacity="0.1"/>
</g>
</g>
<defs>
<clipPath id="clip0_3443_3356">
<rect width="840" height="258" fill="white"/>
</clipPath>
<clipPath id="clip1_3443_3356">
<rect width="251" height="205" fill="white" transform="translate(348 -44)"/>
</clipPath>
<clipPath id="clip2_3443_3356">
<rect width="224" height="207" fill="white" transform="translate(-59 109)"/>
</clipPath>
</defs>
</svg>
