<svg width="13" height="15" viewBox="0 0 13 15" fill="none" xmlns="http://www.w3.org/2000/svg">
<path d="M10.875 2.5C11.832 2.5 12.625 3.29297 12.625 4.25V13C12.625 13.9844 11.832 14.75 10.875 14.75H2.125C1.14062 14.75 0.375 13.9844 0.375 13V4.25C0.375 3.29297 1.14062 2.5 2.125 2.5H3V1.1875C3 0.96875 3.19141 0.75 3.4375 0.75C3.65625 0.75 3.875 0.96875 3.875 1.1875V2.5H9.125V1.1875C9.125 0.96875 9.31641 0.75 9.5625 0.75C9.78125 0.75 10 0.96875 10 1.1875V2.5H10.875ZM11.75 13V6H1.25V13C1.25 13.4922 1.63281 13.875 2.125 13.875H10.875C11.3398 13.875 11.75 13.4922 11.75 13ZM11.75 5.125V4.25C11.75 3.78516 11.3398 3.375 10.875 3.375H2.125C1.63281 3.375 1.25 3.78516 1.25 4.25V5.125H11.75ZM3.95703 13C3.62891 13.0547 3.38281 12.8086 3.4375 12.4805L3.76562 10.8398C3.79297 10.7578 3.82031 10.6758 3.875 10.6211L7.26562 7.23047C7.51172 6.98438 7.83984 6.84766 8.22266 6.90234C8.49609 6.92969 8.76953 7.06641 8.98828 7.25781L9.20703 7.50391C9.45312 7.75 9.58984 8.07812 9.53516 8.43359C9.50781 8.73438 9.37109 9.00781 9.17969 9.22656L5.81641 12.5625C5.76172 12.6172 5.67969 12.6445 5.59766 12.6719L3.95703 13ZM7.86719 7.85938L7.56641 8.16016L8.27734 8.87109L8.57812 8.57031C8.71484 8.43359 8.71484 8.24219 8.57812 8.10547L8.33203 7.85938C8.19531 7.72266 8.00391 7.72266 7.86719 7.85938ZM4.58594 11.1406L4.42188 12.0156L5.29688 11.8516L7.67578 9.5L6.9375 8.76172L4.58594 11.1406Z" fill="#D3427A"/>
</svg>
