<svg width="15" height="15" viewBox="0 0 15 15" fill="none" xmlns="http://www.w3.org/2000/svg">
<path d="M13.8081 9.6084L11.019 8.40527C10.5269 8.21387 9.92529 8.35059 9.59717 8.78809L8.66748 9.88184C7.24561 9.08887 6.04248 7.88574 5.24951 6.46387L6.37061 5.56152C6.78076 5.20605 6.91748 4.60449 6.69873 4.1123L5.52295 1.32324C5.27686 0.776367 4.67529 0.475586 4.10107 0.612305L1.53076 1.21387C0.956543 1.32324 0.57373 1.81543 0.57373 2.41699C0.57373 9.11621 6.01514 14.5576 12.7144 14.5576C13.3159 14.5576 13.8081 14.1748 13.9448 13.6006L14.519 11.0303C14.6558 10.4561 14.355 9.85449 13.8081 9.6084ZM13.0698 13.4092C13.0425 13.5732 12.9058 13.71 12.7144 13.71C6.50732 13.71 1.44873 8.62402 1.44873 2.41699C1.44873 2.22559 1.55811 2.08887 1.72217 2.06152L4.29248 1.45996C4.31982 1.45996 4.34717 1.43262 4.37451 1.43262C4.51123 1.43262 4.64795 1.54199 4.72998 1.67871L5.90576 4.44043C5.96045 4.60449 5.93311 4.76855 5.79639 4.87793L4.4292 5.99902C4.26514 6.13574 4.21045 6.35449 4.31982 6.5459C5.22217 8.37793 6.75342 9.90918 8.61279 10.8115C8.77686 10.9209 8.99561 10.8662 9.13232 10.7021L10.2534 9.33496C10.3628 9.19824 10.5269 9.1709 10.6909 9.22559L13.4526 10.4014C13.6167 10.4834 13.7261 10.6475 13.6714 10.8389L13.0698 13.4092Z" fill="white"/>
</svg>
