<svg width="15" height="15" viewBox="0 0 15 15" fill="none" xmlns="http://www.w3.org/2000/svg">
<path d="M11.9487 2.22168C11.0464 2.22168 11.0737 3.53418 11.9487 3.53418C12.8237 3.53418 12.7964 2.22168 11.9487 2.22168ZM12.3862 9.87793H9.32373C8.58545 9.87793 8.01123 9.30371 8.01123 8.56543C8.01123 7.85449 8.58545 7.25293 9.32373 7.25293H11.9487C11.9487 7.25293 14.5737 4.32715 14.5737 2.87793C14.5737 1.42871 13.3979 0.25293 11.9487 0.25293C10.4995 0.25293 9.32373 1.42871 9.32373 2.87793C9.32373 3.83496 10.4175 5.4209 11.2104 6.37793H9.32373C8.09326 6.37793 7.13623 7.3623 7.13623 8.56543C7.13623 9.7959 8.09326 10.7529 9.32373 10.7529H12.3862C13.0972 10.7529 13.6987 11.3545 13.6987 12.0654C13.6987 12.8037 13.0972 13.3779 12.3862 13.3779H3.90967C4.70264 12.4209 5.82373 10.835 5.82373 9.87793C5.82373 8.42871 4.64795 7.25293 3.19873 7.25293C1.74951 7.25293 0.57373 8.42871 0.57373 9.87793C0.57373 11.3271 3.19873 14.2529 3.19873 14.2529H12.3862C13.5894 14.2529 14.5737 13.2959 14.5737 12.0654C14.5737 10.8623 13.5894 9.87793 12.3862 9.87793ZM10.1987 2.87793C10.1987 1.9209 10.9644 1.12793 11.9487 1.12793C12.9058 1.12793 13.6987 1.9209 13.6987 2.87793C13.6987 3.45215 12.8511 4.7373 11.9487 5.91309C10.9917 4.7373 10.1987 3.4248 10.1987 2.87793ZM1.44873 9.87793C1.44873 8.9209 2.21436 8.12793 3.19873 8.12793C4.15576 8.12793 4.94873 8.9209 4.94873 9.87793C4.94873 10.4521 4.10107 11.7373 3.19873 12.9131C2.2417 11.7373 1.44873 10.4248 1.44873 9.87793ZM3.19873 9.22168C2.29639 9.22168 2.32373 10.5342 3.19873 10.5342C4.07373 10.5342 4.04639 9.22168 3.19873 9.22168Z" fill="white"/>
</svg>
