<svg width="13" height="13" viewBox="0 0 13 13" fill="none" xmlns="http://www.w3.org/2000/svg">
<path d="M10.3525 2.1875C11.0791 2.1875 11.1025 3.3125 10.3525 3.3125C9.60254 3.3125 9.5791 2.1875 10.3525 2.1875ZM10.7275 8.75C11.7588 8.75 12.6025 9.59375 12.6025 10.625C12.6025 11.6797 11.7588 12.5 10.7275 12.5H2.85254C2.85254 12.5 0.602539 9.99219 0.602539 8.75C0.602539 7.50781 1.61035 6.5 2.85254 6.5C4.09473 6.5 5.10254 7.50781 5.10254 8.75C5.10254 9.57031 4.1416 10.9297 3.46191 11.75H10.7275C11.3369 11.75 11.8525 11.2578 11.8525 10.625C11.8525 10.0156 11.3369 9.5 10.7275 9.5H8.10254C7.04785 9.5 6.22754 8.67969 6.22754 7.625C6.22754 6.59375 7.04785 5.75 8.10254 5.75H9.71973C9.04004 4.92969 8.10254 3.57031 8.10254 2.75C8.10254 1.50781 9.11035 0.5 10.3525 0.5C11.5947 0.5 12.6025 1.50781 12.6025 2.75C12.6025 3.99219 10.3525 6.5 10.3525 6.5H8.10254C7.46973 6.5 6.97754 7.01562 6.97754 7.625C6.97754 8.25781 7.46973 8.75 8.10254 8.75H10.7275ZM8.85254 2.75C8.85254 3.21875 9.53223 4.34375 10.3525 5.35156C11.126 4.34375 11.8525 3.24219 11.8525 2.75C11.8525 1.92969 11.1729 1.25 10.3525 1.25C9.50879 1.25 8.85254 1.92969 8.85254 2.75ZM1.35254 8.75C1.35254 9.21875 2.03223 10.3438 2.85254 11.3516C3.62598 10.3438 4.35254 9.24219 4.35254 8.75C4.35254 7.92969 3.67285 7.25 2.85254 7.25C2.00879 7.25 1.35254 7.92969 1.35254 8.75ZM2.85254 8.1875C3.5791 8.1875 3.60254 9.3125 2.85254 9.3125C2.10254 9.3125 2.0791 8.1875 2.85254 8.1875Z" fill="#777777"/>
</svg>
