<svg width="18" height="16" viewBox="0 0 18 16" fill="none" xmlns="http://www.w3.org/2000/svg">
<path d="M15.437 8.46875L9.40576 14.7188C8.99951 15.125 8.34326 15.125 7.96826 14.7188L1.90576 8.46875C0.155762 6.65625 0.249512 3.65625 2.21826 1.96875C3.90576 0.5 6.49951 0.78125 8.06201 2.375L8.68701 3.03125L9.28076 2.375C10.8433 0.78125 13.4058 0.5 15.1558 1.96875C17.0933 3.65625 17.187 6.65625 15.437 8.46875Z" fill="#333333" fill-opacity="0.8"/>
<path d="M15.437 8.46875L15.0054 8.05199L15.0053 8.05211L15.437 8.46875ZM9.40576 14.7188L9.83009 15.1431L9.83751 15.1354L9.40576 14.7188ZM7.96826 14.7188L8.40914 14.3118L8.40411 14.3063L8.39894 14.301L7.96826 14.7188ZM1.90576 8.46875L1.47412 8.88551L1.47509 8.8865L1.90576 8.46875ZM2.21826 1.96875L2.60875 2.42432L2.61218 2.42133L2.21826 1.96875ZM8.06201 2.375L8.49654 1.96116L8.49046 1.95496L8.06201 2.375ZM8.68701 3.03125L8.25253 3.44504L8.69829 3.91309L9.13193 3.4338L8.68701 3.03125ZM9.28076 2.375L8.85232 1.95496L8.8439 1.96354L8.83584 1.97245L9.28076 2.375ZM15.1558 1.96875L15.5499 1.51623L15.5415 1.50917L15.1558 1.96875ZM15.0053 8.05211L8.97401 14.3021L9.83751 15.1354L15.8688 8.88539L15.0053 8.05211ZM8.9815 14.2945C8.79974 14.4762 8.5375 14.4508 8.40914 14.3118L7.52738 15.1257C8.14903 15.7992 9.19929 15.7738 9.83003 15.143L8.9815 14.2945ZM8.39894 14.301L2.33644 8.051L1.47509 8.8865L7.53759 15.1365L8.39894 14.301ZM2.3374 8.05199C0.823683 6.48421 0.906091 3.88371 2.60874 2.4243L1.82779 1.5132C-0.407068 3.42879 -0.512159 6.82829 1.47412 8.88551L2.3374 8.05199ZM2.61218 2.42133C4.02629 1.19053 6.26055 1.39456 7.63357 2.79504L8.49046 1.95496C6.73847 0.167937 3.78523 -0.190526 1.82435 1.51617L2.61218 2.42133ZM7.62753 2.78879L8.25253 3.44504L9.12149 2.61746L8.49649 1.96121L7.62753 2.78879ZM9.13193 3.4338L9.72568 2.77755L8.83584 1.97245L8.24209 2.6287L9.13193 3.4338ZM9.70921 2.79504C11.0777 1.39913 13.287 1.18362 14.77 2.42833L15.5415 1.50917C13.5245 -0.183623 10.6088 0.163367 8.85232 1.95496L9.70921 2.79504ZM14.7617 2.4212C16.4369 3.88027 16.5198 6.48344 15.0054 8.05199L15.8687 8.88551C17.8542 6.82906 17.7496 3.43223 15.5498 1.5163L14.7617 2.4212Z" fill="white"/>
</svg>
