<svg width="30" height="30" viewBox="0 0 30 30" fill="none" xmlns="http://www.w3.org/2000/svg">
<path d="M29.4099 15.1649C29.4099 7.09492 22.8699 0.544922 14.7899 0.544922C6.70992 0.544922 0.169922 7.09492 0.169922 15.1649C0.169922 22.4649 5.51992 28.5149 12.5099 29.6049V19.3949H8.78992V15.1649H12.4999V11.9449C12.4999 8.28492 14.6799 6.25492 18.0199 6.25492C19.6199 6.25492 21.2899 6.54492 21.2899 6.54492V10.1449H19.4499C17.6299 10.1449 17.0699 11.2749 17.0699 12.4249V15.1649H21.1299L20.4799 19.3949H17.0699V29.6149C24.0699 28.5149 29.4099 22.4649 29.4099 15.1649Z" fill="url(#paint0_linear_3443_3386)"/>
<path d="M20.48 19.3949L21.13 15.1649H17.07V12.4249C17.07 11.2649 17.64 10.1449 19.45 10.1449H21.29V6.54488C21.29 6.54488 19.62 6.25488 18.02 6.25488C14.68 6.25488 12.5 8.27488 12.5 11.9449V15.1649H8.79004V19.3949H12.5V29.6149C13.24 29.7349 14.01 29.7949 14.78 29.7949C15.55 29.7949 16.32 29.7349 17.06 29.6149V19.3949H20.48Z" fill="white"/>
<defs>
<linearGradient id="paint0_linear_3443_3386" x1="4.45252" y1="4.82742" x2="25.1301" y2="25.5051" gradientUnits="userSpaceOnUse">
<stop stop-color="#4676ED"/>
<stop offset="0.1854" stop-color="#436DE4"/>
<stop offset="0.487" stop-color="#3C55CD"/>
<stop offset="0.8651" stop-color="#302EA8"/>
<stop offset="1" stop-color="#2B1E99"/>
</linearGradient>
</defs>
</svg>
