<svg width="31" height="31" viewBox="0 0 31 31" fill="none" xmlns="http://www.w3.org/2000/svg">
<path d="M30.2714 15.7031C30.2714 23.7101 23.7804 30.2011 15.7734 30.2011C7.76638 30.2011 1.27539 23.7101 1.27539 15.7031C1.27539 7.69606 7.76638 1.20508 15.7734 1.20508C23.7804 1.20508 30.2714 7.69606 30.2714 15.7031Z" stroke="white"/>
<path d="M17.1113 12.4102V10.9738C17.1113 10.2733 17.5782 10.1111 17.9067 10.1111C18.2351 10.1111 19.9209 10.1111 19.9209 10.1111V7.03629L17.1469 7.02441C14.0681 7.02441 13.3677 9.31963 13.3677 10.7878V12.4102H11.5869V14.5788V15.9995H13.3835C13.3835 20.0675 13.3835 24.9746 13.3835 24.9746H16.9727C16.9727 24.9746 16.9727 20.0201 16.9727 15.9995H19.636L19.7666 14.5907L19.9644 12.4102H17.1113Z" fill="white"/>
</svg>
