<svg width="15" height="16" viewBox="0 0 15 16" fill="none" xmlns="http://www.w3.org/2000/svg">
<path d="M13.9463 1.21289C13.3994 0.884766 12.8799 1.13086 12.7979 1.18555C11.6768 1.70508 10.7197 1.95117 9.87207 1.95117C9.0791 1.95117 8.4502 1.73242 7.79395 1.51367C7.08301 1.26758 6.34473 1.04883 5.3877 1.04883C4.67676 1.04883 3.6377 1.10352 1.2041 2.08789V1.48633C1.2041 1.24023 0.985352 1.04883 0.766602 1.04883C0.520508 1.04883 0.329102 1.24023 0.329102 1.48633V14.584C0.329102 14.8301 0.520508 15.0215 0.766602 15.0215C0.985352 15.0215 1.2041 14.8301 1.2041 14.584V11.7402C1.58691 11.5488 3.30957 10.6738 5.25098 10.6738C6.2627 10.6738 7.08301 10.8652 7.98535 11.1113C8.80566 11.3027 9.68066 11.5215 10.6924 11.5215C11.6494 11.5215 12.6611 11.3301 13.7275 10.8926C14.0557 10.7832 14.2744 10.4551 14.2744 10.0996L14.3291 1.92383C14.3291 1.65039 14.1924 1.34961 13.9463 1.21289ZM13.4268 10.0723C12.4424 10.4824 11.54 10.6465 10.6924 10.6465C9.79004 10.6465 9.02441 10.4551 8.2041 10.2637C7.30176 10.0176 6.37207 9.79883 5.25098 9.79883C3.99316 9.79883 2.70801 10.0996 1.25879 10.7285L1.2041 10.7832V3.04492L1.96973 2.74414C3.30957 2.19727 4.43066 1.92383 5.3877 1.92383C6.20801 1.92383 6.86426 2.11523 7.52051 2.33398C8.2041 2.55273 8.94238 2.79883 9.87207 2.79883C11.7588 2.79883 13.4541 1.92383 13.4541 1.92383L13.4268 10.0723Z" fill="#333333" fill-opacity="0.8"/>
</svg>
