<svg width="31" height="31" viewBox="0 0 31 31" fill="none" xmlns="http://www.w3.org/2000/svg">
<path d="M30.2754 15.1162C30.2754 23.1243 23.7835 29.6162 15.7754 29.6162C7.76726 29.6162 1.27539 23.1243 1.27539 15.1162C1.27539 7.10808 7.76726 0.616211 15.7754 0.616211C23.7835 0.616211 30.2754 7.10808 30.2754 15.1162Z" stroke="white"/>
<path d="M23.5088 14.3566C23.3775 14.3566 23.2463 14.3566 23.115 14.3566C23.115 14.3285 23.115 14.3004 23.115 14.2816C23.115 14.1785 23.115 14.0941 23.115 14.0098C23.115 13.5129 23.1244 13.0066 23.1057 12.5098C23.1057 12.4254 23.0213 12.2848 22.965 12.2754C22.5057 12.2566 22.0557 12.266 21.5682 12.266C21.5682 12.866 21.5682 13.4285 21.5682 14.0098C21.5682 14.1223 21.5682 14.2348 21.5682 14.3473C20.865 14.3473 20.1994 14.3473 19.4775 14.3473C19.4775 14.5066 19.4775 14.6098 19.4775 14.7129C19.4963 15.0879 19.515 15.4723 19.5244 15.8473C19.89 15.8566 20.265 15.8754 20.6307 15.8848C20.94 15.8941 21.2494 15.8848 21.5869 15.8848C21.5869 16.6066 21.5869 17.2723 21.5869 17.9473C22.1025 17.9473 22.5807 17.9473 23.0963 17.9473C23.0963 17.2629 23.0963 16.5973 23.0963 15.8848C23.8088 15.8848 24.4744 15.8848 25.1588 15.8848C25.1588 15.491 25.1588 15.116 25.1588 14.7316C25.1588 14.6098 25.1588 14.4879 25.1588 14.3566C24.615 14.3566 24.0619 14.3566 23.5088 14.3566Z" fill="white"/>
<path d="M17.5746 14.1786C16.2714 14.1973 14.9683 14.1879 13.6652 14.1879C13.2902 14.1879 12.9152 14.1786 12.5496 14.1973C12.4746 14.1973 12.3527 14.2817 12.3527 14.3379C12.3433 15.0879 12.3433 15.8379 12.3433 16.6348C13.4214 16.6348 14.4621 16.6348 15.5402 16.6348C15.4933 16.7942 15.4746 16.8973 15.4371 17.0098C14.9496 18.4629 13.4496 19.1848 11.8371 18.9223C9.84019 18.5942 8.59332 16.7473 8.94957 14.7411C8.99644 14.4598 9.09019 14.1879 9.20269 13.9348C9.85894 12.4817 11.4996 11.6004 13.1121 11.9567C13.6933 12.0786 14.1808 12.3598 14.6121 12.7348C15.1933 12.1536 15.7558 11.5817 16.3558 10.9723C16.3183 10.9442 16.2621 10.9067 16.2058 10.8598C14.7996 9.66919 13.1777 9.22856 11.3683 9.52856C8.76207 9.95044 6.88707 12.0036 6.46519 14.4036C6.28707 15.4254 6.37144 16.5129 6.78394 17.5723C7.77769 20.1223 10.3371 21.6692 13.0746 21.3692C14.4058 21.2192 15.6058 20.7411 16.5339 19.7473C17.9121 18.2848 18.2589 16.5129 18.0433 14.5723C18.0058 14.2348 17.8746 14.1692 17.5746 14.1786Z" fill="white"/>
</svg>
