<svg width="142" height="203" viewBox="0 0 142 203" fill="none" xmlns="http://www.w3.org/2000/svg">
<g clip-path="url(#clip0_3443_3283)">
<path fill-rule="evenodd" clip-rule="evenodd" d="M93.7671 94.2891C95.9077 95.2704 98.242 97.0023 100.47 98.1376C102.746 99.3018 105.158 100.235 107.318 101.39C111.154 103.429 115.968 106.479 117.295 111.598C117.779 113.435 117.624 115.62 118.341 117.515C119.077 119.449 120.597 120.853 121.769 122.547C122.932 124.24 123.755 126.068 124.898 127.877C125.15 126.347 125.896 125.106 125.789 123.288C125.673 121.315 124.501 119.583 124.298 117.226C123.852 112.194 125.692 109.76 127.126 105.835C127.484 104.853 127.94 103.718 128.317 101.986C128.714 100.158 128.579 98.128 129.363 97.9933C130.564 97.7816 130.468 99.9368 130.7 101.101C131.397 104.565 132.967 108.461 133.228 111.906C133.722 118.256 129.383 119.583 127.717 122.999C127.329 123.798 127.019 125.395 126.68 126.549C126.361 127.598 125.973 128.753 126.08 129.955C126.186 131.071 126.903 132.505 127.416 133.804C128.782 137.248 130.361 141.828 130.845 145.936C131.397 145.542 131.514 144.859 131.736 144.31C131.969 143.752 132.279 143.242 132.337 142.53C132.492 140.529 131.494 139.038 131.736 136.613C132.24 131.754 136.308 127.608 138.439 123.74C138.846 123.009 139.137 122.268 139.485 121.517C139.756 120.93 140.008 119.824 140.977 119.891C141.878 120.738 141.326 121.873 141.277 122.999C141.093 127.309 142.042 133.14 140.677 136.315C139.456 139.163 136.221 140.414 134.274 142.829C133.015 144.387 131.475 147.11 131.446 150.083C131.426 151.622 131.717 153.248 131.746 154.817C131.795 157.982 131.552 161.176 131 163.986C130.739 165.304 130.574 166.67 129.954 167.834C126.806 167.892 128.598 164.428 129.208 162.062C129.945 159.214 130.468 156.674 128.463 154.807C126.7 153.162 123.397 152.642 121.46 151.103C115.357 146.263 115.658 137.537 112.374 130.244C111.977 129.368 111.212 128.406 111.483 127.281C112.461 126.838 113.284 127.781 113.866 128.32C115.677 129.974 117.614 131.745 119.522 133.496C121.924 135.699 124.404 138.316 125.779 141.636C127.465 145.734 126.816 151.978 130.245 154.653C130.061 143.31 126.661 133.91 122.196 126.241C120.714 123.692 119.222 120.882 117.285 119.141C114.97 117.063 110.689 116.649 107.899 115.148C101.632 111.761 98.8038 104.517 94.9391 98.4262C94.5904 97.8778 94.1255 97.2428 93.7477 96.6559C93.3893 96.0979 92.7694 95.3282 93.1472 94.5873C93.3893 94.5007 93.5443 94.366 93.7671 94.2891ZM106.872 106.566C110.011 108.865 112.829 111.627 115.367 114.263C115.658 114.571 116.229 115.591 116.413 115.004C115.435 103.891 104.519 102.65 97.1959 97.8393C99.5787 101.38 103.327 103.968 106.872 106.566ZM102.853 105.382C101.361 104.247 100.024 102.948 98.6779 101.832C98.707 101.851 98.6585 101.957 98.6779 101.976C100.702 105.238 102.378 108.663 105.09 111.3C107.822 113.955 111.502 115.427 115.522 116.476C112.132 112.165 107.211 108.692 102.853 105.382ZM127.281 120.921C128.908 119.141 131.649 117.274 131.901 113.666C132.124 110.472 130.719 107.21 129.964 104.343C130.032 110.828 128.191 115.417 127.281 120.921ZM126.235 119.141C127.097 115.061 128.366 110.607 128.472 106.268C127.242 109.914 124.385 114.311 126.235 119.141ZM134.884 140.154C136.211 138.99 138.371 138.037 139.35 135.863C140.435 133.467 139.863 130.032 139.795 126.694C138.72 131.745 136.957 136.103 134.884 140.154ZM133.538 140.01C135.359 136.007 137.509 131.524 138.158 126.838C136.231 130.484 131.804 134.593 133.538 140.01ZM126.235 150.362C125.78 145.936 124.753 142.396 122.806 139.413C121.343 137.162 119.551 135.468 117.74 133.794C117.159 133.255 116.607 132.486 115.803 132.312C120.036 137.595 122.544 144.57 126.235 150.362ZM118.05 138.23C117.285 136.969 116.248 134.747 115.367 134.237C115.386 134.246 115.348 134.362 115.367 134.381C117.246 141.587 118.651 149.265 125.344 151.69C122.757 147.937 120.578 142.386 118.05 138.23Z" fill="#EDEDED"/>
<path fill-rule="evenodd" clip-rule="evenodd" d="M28.9673 138.086C30.4589 137.787 31.1563 139.538 31.7956 140.308C34.2074 143.166 36.9389 145.754 39.5445 148.592C41.4236 150.651 43.1089 151.892 44.1647 154.653C44.9299 156.655 45.1818 158.675 45.3561 161.456C45.4045 162.187 45.3174 163.111 45.5014 163.823C45.7435 164.727 46.9543 166.016 47.7389 166.93C50.1701 169.797 53.4343 172.289 56.9794 173.588C62.4133 175.589 67.9924 176.744 74.2593 177.581C71.7603 175.993 68.8835 174.454 66.8107 172.106C65.5128 170.634 64.5539 168.874 63.3819 167.219C60.631 163.332 57.0569 159.551 53.4052 156.414C52.7853 155.885 51.5939 155.163 51.9136 154.047C53.2502 153.634 54.2866 154.759 55.3424 155.231C56.4563 155.731 57.7155 156.125 58.9166 156.558C64.428 158.56 71.1404 159.416 70.5399 167.363C70.4043 169.191 69.6875 171.058 70.3946 172.838C70.8789 174.06 72.6902 175.166 74.114 175.945C76.1675 177.061 77.8238 178.014 80.3712 178.168C85.3014 178.466 91.394 178.033 95.7139 177.427C93.1568 176.099 90.59 175.233 88.5656 173.434C85.1949 170.432 83.248 165.314 80.3712 161.744C79.9644 161.244 79.0248 160.744 79.4704 159.82C80.1291 158.935 81.4367 159.493 82.2987 159.676C83.2092 159.859 84.2069 160.118 85.1271 160.272C89.418 160.946 93.5346 161.032 94.9584 164.419C96.2273 167.431 94.1254 170.634 95.404 173.886C95.9464 175.281 97.6899 176.58 98.9781 176.85C100.344 177.129 102.242 176.349 103.889 175.965C104.712 175.772 105.584 175.551 106.427 175.368C107.114 175.224 108.161 174.723 108.664 175.512C108.994 177.966 105.72 178.004 103.899 178.322C101.574 178.736 98.9297 178.88 96.8956 179.063C95.2393 179.217 93.7864 180.515 92.2754 181.583C90.9968 182.478 89.6989 183.219 89.0015 184.393C88.2847 185.605 88.0813 187.058 87.5098 188.241C85.408 192.59 80.9717 195.044 76.9327 197.564C74.7049 198.95 72.5352 200.432 70.2299 201.856C69.5906 202.25 68.6995 203 67.8471 202.442C67.7115 200.788 68.8835 199.123 69.6294 197.555C71.1017 194.495 72.787 191.628 74.3949 188.674C76.7002 184.451 79.1895 180.467 86.3088 181.131C87.2096 181.218 88.0716 181.814 89.1371 181.718C90.7353 181.574 91.4521 180.015 92.8565 179.351C90.067 179.255 87.442 179.64 84.6621 179.65C80.8265 179.659 76.4968 178.495 74.5305 180.833C73.3972 182.17 72.8355 184.258 72.1477 185.721C69.765 190.781 67.3435 194.591 62.0161 197.112C56.9794 199.498 50.7803 200.268 45.0365 201.846C43.3414 202.308 41.4526 203.308 39.5251 202.885C39.1958 201.933 40.0578 201.134 40.5712 200.518C42.1403 198.604 43.7966 196.573 45.3367 194.457C49.4339 188.799 53.0371 182.834 60.8247 180.843C64.5151 179.9 68.8545 179.9 73.4844 179.063C69.6584 178.226 65.445 177.658 61.5706 176.552C59.6721 176.013 58.2676 175.195 55.7589 175.224C53.7249 175.243 51.0515 175.57 49.3564 176.263C46.6153 177.369 45.5595 179.65 43.6998 181.295C42.0047 182.786 39.6801 184.47 36.6968 184.989C31.9893 185.817 26.846 184.989 21.1991 184.989C19.504 184.989 16.8888 185.278 16.5788 184.249C16.2011 182.979 19.8527 180.987 20.7535 180.4C22.7779 179.082 24.0952 178.428 25.6643 177.437C28.7639 175.493 32.2509 173.126 36.842 172.847C39.0311 172.713 40.9489 173.146 42.799 173.588C44.6006 174.021 46.6153 174.8 48.3103 174.772C49.9957 174.743 51.5358 173.829 53.3762 173.886C52.7756 173.242 51.8748 173.03 51.1387 172.703C47.4483 171.038 44.0775 169.307 40.5615 166.93C39.1183 165.958 37.8881 164.544 36.5418 164.419C34.3721 164.207 31.9893 165.968 29.3935 166.189C23.5237 166.699 18.7291 163.765 14.196 162.197C13.0047 161.783 11.0578 161.85 10.6219 160.272C11.4065 159.503 12.6753 159.647 13.7505 159.531C16.8403 159.195 20.4435 158.204 23.7271 158.204C27.4466 158.204 30.4977 159.628 32.9676 161.167C31.0498 159.06 28.2215 156.549 26.2649 153.913C25.0929 153.624 24.2599 153.095 22.6907 153.172C21.0828 153.249 19.3781 154.172 17.3246 154.211C11.4065 154.297 7.9679 150.016 4.06442 147.255C3.12487 146.591 0.228737 145.292 0.490261 144.147C0.790528 142.781 6.46656 143.714 7.78386 143.849C10.7284 144.157 12.9659 144.484 14.6319 145.33C18.0317 147.062 19.3781 149.891 22.0805 151.844C22.9813 151.786 23.7271 151.882 24.4633 151.988C24.4148 151.19 23.6787 150.651 23.2719 150.064C22.0514 148.303 20.9957 145.821 19.5524 143.993C17.9058 141.905 15.0872 140.943 13.1499 138.961C11.4161 137.191 10.6219 134.699 10.6219 131.861C10.6122 129.282 11.358 126.559 11.2127 123.721C11.1546 122.537 10.9706 121.277 10.7672 120.171C10.5831 119.18 9.99229 118.083 10.6219 117.063C11.697 116.822 12.2491 117.929 12.7044 118.545C14.1573 120.498 15.7167 122.316 17.3246 124.317C19.659 127.223 22.4486 130.667 22.0902 136.007C21.9352 138.297 20.6276 140.683 20.8988 142.964C21.0441 144.234 22.342 145.937 23.2816 147.399C28.6961 155.846 35.4473 162.158 43.9904 167.373C45.4336 168.258 46.9156 169.076 48.4653 169.884C48.5816 169.913 48.6106 170.028 48.7559 170.028C47.797 169.143 47.0802 168.056 46.2278 167.065C45.3852 166.103 44.5812 164.881 43.6901 164.111C42.6731 163.226 41.3654 162.812 40.4162 162.187C37.2779 160.138 35.0598 157.703 33.8587 153.306C32.7739 149.323 31.9312 145.042 30.2846 141.472C29.839 140.481 28.6283 139.433 28.9673 138.086ZM17.499 137.2C18.0801 138.653 18.671 140.164 19.7365 141.193C20.0948 138.586 21.0441 136.296 20.7826 133.794C20.2305 128.647 15.7846 125.26 13.4793 121.96C14.8837 126.954 15.7071 132.746 17.499 137.2ZM12.7334 136.007C13.7214 138.211 15.7555 139.077 17.499 140.443C15.0484 135.969 14.1379 129.975 12.5882 124.606C12.6753 128.695 11.2902 132.813 12.7334 136.007ZM6.32127 145.186C5.70136 145.33 6.29221 144.743 6.32127 145.186C11.0481 146.456 15.0097 149.285 18.981 150.805C16.1429 147.572 12.5591 145.051 6.32127 145.186ZM43.4189 161.023C43.477 161.09 43.661 161.975 44.0097 161.465C44.0485 153.287 39.0311 150.141 35.0695 145.927C37.9656 150.459 39.99 157.001 43.4189 161.023ZM8.70404 147.409C7.59014 146.985 5.77885 146.283 5.12988 146.369C5.17831 146.36 5.23643 146.369 5.27517 146.369C8.69435 148.659 11.9876 153.037 17.4893 152.883C17.9058 152.873 18.7582 152.816 19.1262 152.441C15.8717 151.363 12.2395 148.765 8.70404 147.409ZM39.0892 159.541C39.9416 160.272 40.9586 160.724 41.9272 161.465C38.8083 156.924 36.7064 151.353 33.7328 146.668C34.9339 151.729 35.7088 156.635 39.0892 159.541ZM67.2563 170.336C67.605 170.779 68.5833 172.155 68.7479 171.664C68.3799 169.509 69.3582 167.931 69.1935 165.747C68.7383 159.647 61.125 159.252 56.5338 157.309C60.6407 160.85 63.934 166.132 67.2563 170.336ZM31.7956 162.052C29.3838 159.993 23.979 159.32 19.7268 159.984C19.0294 160.089 18.0317 160.176 17.7896 160.58C22.7488 160.686 27.4853 161.802 31.7956 162.052ZM89.4471 167.084C90.7837 168.951 91.8008 171.308 93.1665 172.857C93.2052 172.905 93.5249 173.684 93.767 173.155C93.3408 169.711 94.8906 166.42 93.1665 164.13C91.6555 162.11 86.27 161.687 83.4804 161.61C85.9407 162.985 87.8101 164.823 89.4471 167.084ZM19.2812 161.908C18.2642 161.802 16.3076 161.523 17.7896 162.052C22.4292 163.726 28.4055 166.401 33.4326 163.678C28.8898 163.322 23.8046 162.37 19.2812 161.908ZM89.4471 172.26C90.3285 173.078 91.3746 173.896 92.5756 174.185C90.745 172.52 89.8635 169.913 88.401 167.825C87.2096 166.122 85.8438 164.987 84.3812 163.832C83.9744 163.515 83.5095 162.889 82.8896 162.947C85.1464 165.872 86.8028 169.817 89.4471 172.26ZM37.6073 174.185C30.5461 174.29 25.4416 179.746 20.4726 182.324C20.3951 182.324 20.3079 182.44 20.4726 182.469C24.6473 181.449 28.2505 180.044 31.9409 178.476C35.6894 176.879 39.6704 176.022 44.4553 175.368C42.0725 174.935 40.1934 174.146 37.6073 174.185ZM21.819 183.508C26.4586 183.517 30.7786 184.162 35.0792 183.806C39.8738 183.411 42.6246 180.275 45.0655 177.735C45.3561 177.427 46.4119 176.879 45.8113 176.696C35.98 177.158 30.1005 181.526 21.819 183.508ZM54.2866 185.576C50.9256 188.357 48.4266 192.552 45.9469 195.938C45.0946 197.093 44.1938 198.238 43.5642 199.489C43.5739 199.402 43.5835 199.316 43.7095 199.344C48.5719 196.285 53.6183 194.014 57.8608 190.464C59.9627 188.703 61.8805 186.856 64.118 185.288C66.4136 183.671 68.9126 182.546 71.2663 180.852C64.0018 181.295 58.4517 182.141 54.2866 185.576ZM64.7185 186.615C62.5489 188.184 60.6407 190.002 58.4613 191.792C54.2479 195.265 49.1627 197.545 44.31 200.518C50.6834 198.584 57.3862 198.228 62.4811 195.486C67.7115 192.677 69.7359 187.626 72.3124 182.17C72.3027 182.084 72.293 181.997 72.1671 182.026C69.6294 183.652 67.0626 184.922 64.7185 186.615ZM74.5499 191.205C73.281 193.475 71.9928 195.698 71.276 197.718C75.9641 192.071 80.5746 186.336 87.3645 182.776C79.2573 181.074 77.1457 186.529 74.5499 191.205ZM72.0121 199.046C77.756 194.89 85.8535 192.273 87.3549 184.393C80.933 187.876 76.2353 193.86 72.0121 199.046Z" fill="#EDEDED"/>
<path fill-rule="evenodd" clip-rule="evenodd" d="M63.5273 41.016C62.8977 45.4225 61.9582 49.5116 61.4448 54.0336C62.2487 54.7744 63.3723 55.2747 64.4281 55.8135C69.6198 58.4594 74.056 61.5382 77.8336 65.8774C79.18 67.4265 81.34 69.3218 80.5166 71.9485C79.9161 72.391 78.8603 72.5257 78.1339 72.0928C77.5043 72.4969 77.2718 73.3147 76.342 73.4205C81.7274 76.9996 89.9315 80.117 94.9586 85.1104C95.6463 85.7839 96.6439 87.0251 96.2952 88.0738C96.0143 88.9301 94.4646 89.1802 93.3119 88.9589C92.3918 89.5651 91.8203 90.4791 90.7742 91.0275C88.7982 92.0859 86.2314 92.3168 83.1803 92.3553C85.3306 96.8099 85.6309 101.601 86.3089 106.114C87.0451 110.982 89.6022 113.666 92.4111 116.918C96.7989 122.008 101.855 126.886 107.609 131.273C108.461 131.928 109.749 132.765 109.836 133.198C110.117 134.468 107.86 137.2 107.008 138.374C101.477 145.927 93.7672 151.623 84.2167 154.952C80.3229 156.308 75.8867 157.463 70.9565 157.463C69.4067 157.463 66.9659 157.424 65.8907 157.02C65.3386 156.808 64.6606 155.962 63.8082 155.25C59.1879 151.411 54.2674 147.014 49.5116 143.56C43.6515 139.307 36.8325 136.315 31.6311 131.572C25.9357 126.386 22.8265 121.056 18.5259 114.85C15.6975 110.77 12.0846 106.364 8.99477 101.977C7.54186 99.908 6.14707 97.849 5.86617 95.1647C5.52716 91.7876 5.65308 84.9084 7.36751 82.8879C8.28769 81.8103 9.65342 81.7141 11.3969 80.9636C11.3969 79.9053 11.5906 78.2216 12.4333 77.5577C11.7069 76.076 10.4671 75.2293 10.2055 73.5648C9.86652 71.477 10.6027 69.0525 11.2419 67.0512C12.9854 61.6152 16.5112 56.4101 19.2814 52.5519C16.453 50.5892 15.6103 47.2313 14.8161 42.0454C14.0218 36.8596 13.0242 31.2888 16.3077 28.8739C19.4848 26.5359 23.4367 26.9111 28.9674 26.507C28.7834 24.7656 28.735 22.8702 29.568 21.7733C28.7156 18.7619 30.3428 15.7023 32.5416 15.558C34.2463 15.4425 35.399 16.9242 36.571 17.9248C37.8689 19.0313 39.0603 20.0319 39.9999 20.7342C40.1936 15.8562 40.3873 10.2663 40.6004 5.49409C40.6391 4.53195 40.4067 3.45437 40.7457 2.53072C41.4721 0.548733 45.2594 0.211987 48.049 0.00993909C51.0323 -0.20173 56.7374 0.741159 57.4348 2.37678C57.7447 3.108 57.5801 5.9078 57.5801 7.40873C57.5801 11.2669 57.6866 14.1533 57.7253 18.0595C57.7447 19.8106 57.3379 22.1582 57.7253 23.3897C58.0837 24.5443 60.1953 25.1023 61.1542 26.0548C62.9268 27.8155 63.7791 30.471 63.9825 33.3093C64.0503 34.2137 63.7501 35.4645 63.9825 36.5613C64.1763 37.4753 65.1546 38.043 65.0189 39.2264C64.9318 40.0057 64.1763 40.5349 63.5273 41.016ZM42.0727 2.8386C43.0703 4.33953 46.1505 4.60892 48.7754 4.76287C51.6425 4.93605 54.8486 4.34915 56.0787 2.98292C52.7758 0.933585 45.5112 0.875857 42.0727 2.8386ZM41.4818 19.2622C41.4237 20.994 41.0653 22.7162 41.4818 23.8515C42.1889 25.7758 45.4337 26.4012 47.4387 26.5166C51.226 26.7283 54.3062 25.391 56.379 24.0055C56.1465 17.7228 56.4758 10.8916 55.9334 4.91681C52.3496 6.61978 45.4144 6.39849 41.9274 4.77249C41.7627 8.98662 41.6368 14.7786 41.4818 19.2622ZM30.6044 20.003C31.2921 19.7048 32.1251 18.6753 33.4327 18.377C33.8783 18.2712 34.4594 18.6657 34.7694 18.0788C33.0356 15.9813 30.7303 17.3379 30.6044 20.003ZM38.4985 21.4847C37.8786 20.9363 36.9972 20.2628 36.416 20.003C32.8031 18.3963 29.0255 22.418 30.4591 26.5166C32.5416 26.1414 34.1204 26.9977 35.5249 26.661C35.9898 26.5455 36.1351 26.1414 36.571 25.7758C37.7333 24.7848 39.0894 24.323 39.9999 23.409C39.8061 22.7258 39.0894 22.0043 38.4985 21.4847ZM40.2904 24.8906C39.3993 25.5738 38.0626 25.8335 37.6074 26.9592C42.4407 27.498 46.6832 29.2876 50.8676 30.6538C55.0423 32.0297 58.9942 33.7711 62.6362 35.8301C62.9074 30.2401 60.9702 26.8341 57.4251 25.0253C53.8412 28.2773 43.3803 29.2683 40.2904 24.8906ZM32.9871 27.8444C31.3018 27.7674 29.3839 27.6327 27.6211 27.8444C23.8532 28.2966 18.245 28.2004 16.2981 30.8077C15.4554 31.9334 15.2713 34.156 15.4069 36.138C15.5425 38.1584 16.0656 40.7754 16.4433 43.2385C17.0439 47.0966 17.7703 50.0889 20.0175 51.3781C21.9257 48.3666 24.938 45.461 28.8028 44.7202C29.5583 44.5758 31.2049 45.028 31.4955 43.6811C30.4591 43.2289 28.735 43.4694 28.5219 42.1994C29.2677 41.3719 30.5463 42.1224 31.6505 42.3437C34.3722 42.8825 37.7527 43.2481 40.736 42.642C40.8232 42.1032 39.07 42.1224 39.3993 40.862C40.3389 40.3425 41.2687 41.2565 42.0824 41.7472C46.3345 44.3161 57.861 46.1152 60.5537 41.0063C55.7784 39.7267 46.4701 38.8319 49.2307 31.6833C44.8816 29.9033 39.1669 28.1138 32.9871 27.8444ZM61.2898 36.5805C58.0353 34.637 54.1899 33.4151 50.5673 32.1451C48.3202 36.4458 52.9985 37.4272 56.224 38.5048C58.6649 39.3226 61.6288 40.3232 63.5273 39.2456C63.4692 37.9756 62.2197 37.1386 61.2898 36.5805ZM54.742 45.6053C50.6545 45.9132 46.0633 44.4411 41.9371 44.1236C40.2517 43.9986 38.5663 44.2199 37.0165 44.268C36.6485 44.2776 35.8736 44.0082 35.6799 44.5662C36.5226 45.3744 37.7817 45.3071 38.8085 45.6053C46.2861 47.7605 53.2213 50.9355 60.1081 53.591C60.4762 49.4731 61.6579 45.3648 61.9 41.6029C60.7571 44.0852 57.706 45.384 54.742 45.6053ZM32.6869 44.5662C33.2293 44.5662 33.7814 44.5662 34.3238 44.5662C34.2657 43.8831 33.4036 43.9986 32.6869 43.9793C32.6869 44.1717 32.6869 44.3738 32.6869 44.5662ZM42.6732 48.4147C39.564 47.3564 36.3579 46.1249 33.1421 45.9036C25.3448 45.3455 22.4681 50.1466 19.5816 54.4858C17.1117 58.2092 14.9808 61.2303 13.1791 65.8774C12.3849 67.9268 11.1838 70.8132 11.5422 73.2762C11.7456 74.6424 12.6755 75.3255 13.3341 76.5282C20.5309 71.8811 28.8899 68.4078 37.0165 64.694C36.1351 64.5689 35.0987 64.1937 34.1882 63.8088C33.4424 63.4913 31.9314 63.1065 32.3963 62.0289C33.4908 61.6537 34.4401 62.4522 35.2246 62.7697C36.2707 63.1835 37.2393 63.4144 38.3532 63.6549C40.6391 64.1456 42.7604 63.9051 45.5015 64.0975C50.4414 64.4535 55.3232 66.8203 60.0984 68.3886C63.3723 69.4662 67.7504 70.3225 71.2761 71.4963C73.533 72.2467 75.4993 73.5841 76.7875 71.4963C74.8212 70.7747 72.729 69.2353 70.6853 67.5034C68.3413 65.5214 64.9415 62.1732 67.702 59.2195C61.1251 55.0919 51.0516 51.2819 42.6732 48.4147ZM74.9956 64.8383C73.2134 63.1931 71.3827 61.4516 69.184 60.249C69.1743 60.1624 69.1646 60.0758 69.0387 60.1046C66.7818 61.5286 69.0774 64.2899 70.3753 65.5792C72.6128 67.8017 76.4873 70.1397 79.3156 70.9094C78.6569 68.2539 76.7585 66.4643 74.9956 64.8383ZM63.5273 70.9094C60.2728 70.1012 57.2604 69.0428 54.2868 67.946C51.2066 66.8107 48.1943 65.6273 44.6104 65.4348C39.254 65.1366 36.4354 66.4643 32.8419 68.0999C30.3041 69.2545 27.8729 70.486 25.5386 71.6502C23.1752 72.824 20.5212 73.7861 18.2353 75.0562C16.0559 76.2684 13.1695 77.5385 12.7239 80.3864C17.5863 79.5685 22.933 76.9708 28.3669 76.9804C30.5366 76.99 32.7837 77.5481 34.9244 77.8656C37.1909 78.2023 39.4284 78.5583 41.6271 78.7507C46.6929 79.2126 53.7444 79.4627 55.7784 82.5993C55.9915 82.9264 55.9237 82.7917 56.379 83.0418C58.0547 83.9847 61.7451 83.7827 64.1181 84.3696C65.5614 84.7256 67.1402 85.5145 68.5931 86.1495C70.0363 86.7845 71.4796 87.4965 72.9131 88.0738C77.5915 89.9692 85.5921 92.7305 90.4933 89.4015C90.6967 89.2572 91.7912 88.8339 91.0938 88.6607C89.0404 88.247 86.5317 87.2175 84.2458 85.9956C81.9889 84.8025 79.6062 83.571 79.7805 80.8193C79.8774 79.2318 80.9913 78.6834 81.1172 77.7116C76.4388 74.5558 70.2591 72.5738 63.5273 70.9094ZM27.776 78.4525C24.26 78.7796 21.0636 79.5685 17.3538 80.5211C15.3004 81.0502 9.28535 82.503 8.26832 83.927C7.65809 84.7833 7.52249 87.0347 7.36751 88.9589C7.14473 91.98 6.98007 95.1166 7.81307 97.2429C8.94634 100.129 11.7844 103.073 13.77 105.825C15.9009 108.779 18.0125 111.723 19.8819 114.407C24.105 120.469 27.2627 125.76 32.8419 130.831C38.1014 135.603 44.2327 137.97 50.4221 142.521C54.713 145.667 58.4809 149.015 62.4909 152.431C63.9922 153.71 65.5807 155.307 66.6656 155.683C68.6318 156.375 71.1309 156.116 73.3683 155.981C81.8049 155.461 88.8273 151.911 94.3677 148.284C100.237 144.445 105.129 139.885 108.374 133.631C102.01 129.022 96.024 123.345 90.9389 117.351C89.205 115.302 87.355 113.185 86.1733 110.838C84.8173 108.144 84.7495 104.68 84.2361 101.216C83.7324 97.849 83.0641 94.7221 81.5531 92.1917C76.3807 91.4028 72.1866 89.238 68.1475 87.458C66.7431 86.8423 65.2708 86.0918 63.8276 85.6781C61.3382 84.9757 58.3646 85.351 55.7881 84.1964C54.9939 84.5428 54.6064 85.2932 53.7056 85.5241C53.57 86.3612 53.4538 86.9673 53.1051 87.5927C52.582 88.5356 51.41 89.0744 51.3132 89.9596C51.2454 90.5849 52.0687 91.8261 52.5046 92.6247C55.2167 97.6181 60.3406 101.207 65.9101 102.689C66.8012 102.919 68.3703 102.756 68.5931 104.016C67.7407 104.921 66.3169 104.247 65.4645 104.016C58.0547 102.054 52.6498 97.0601 49.9765 90.7004C48.1749 91.778 45.8405 92.3072 42.9735 92.3264C43.9324 94.1352 45.0172 95.7612 45.9568 97.6566C46.906 99.5712 47.5065 101.592 48.3396 103.574C49.6375 106.672 51.5553 108.721 53.5507 110.828C54.1706 111.482 55.3426 112.3 54.8873 113.493C53.6766 113.609 53.0276 112.435 52.3593 111.713C50.1412 109.337 48.2524 107.066 46.9932 103.872C46.1699 101.784 45.4918 99.6675 44.4651 97.6566C43.7096 96.1942 42.8379 94.7702 42.0824 93.5098C41.8305 93.0961 41.7337 92.2398 41.0363 92.3264C41.2687 95.7997 40.7941 98.7342 39.8449 101.351C39.3509 102.727 38.9441 105.036 37.4621 105.344C36.8906 103.641 38.2079 102.025 38.7988 100.312C39.6124 97.9645 40.1355 94.7895 39.5446 92.3264C35.3021 92.3072 31.3599 92.5766 27.776 93.2116C26.4394 95.6746 24.2794 98.3301 21.6738 99.7252C20.9764 100.1 19.446 101.159 18.7002 99.8695C19.3007 98.9266 20.5696 98.9651 21.5285 98.3878C22.8749 97.57 24.26 96.0017 25.1027 94.8376C25.4126 94.4046 26.1778 93.683 25.7032 93.5098C24.1341 93.3944 21.9063 94.8857 21.083 93.6541C21.1798 92.6535 22.4584 92.7594 23.1655 92.615C25.9357 92.0666 28.4638 91.5952 31.3599 91.2873C39.8642 90.3636 49.8312 92.615 52.0687 86.111C46.2958 87.0732 36.0189 87.2656 38.8085 79.7514C35.2537 79.5589 31.0693 78.1446 27.776 78.4525ZM92.4305 84.9661C89.4375 82.6185 86.028 80.3286 82.7444 78.4525C82.6476 78.4525 82.541 78.4525 82.4442 78.4525C78.6763 82.0316 83.7808 84.3984 86.7642 85.7069C89.5537 86.9288 92.0237 87.7274 94.8036 87.6312C94.7261 86.2842 93.3604 85.6973 92.4305 84.9661ZM49.6762 81.2619C46.7801 80.5788 43.5643 80.117 40.2904 79.9342C39.7093 80.6365 39.6705 81.8777 39.6996 83.1862C41.1138 85.0431 45.5015 85.5241 48.9401 85.2547C51.1679 85.0816 53.7928 84.5235 54.4515 83.0322C53.3763 81.7911 51.4488 81.6756 49.6762 81.2619Z" fill="#EDEDED"/>
<path fill-rule="evenodd" clip-rule="evenodd" d="M53.996 7.87012C54.7903 8.02406 54.6837 9.14013 54.7418 9.79438C54.8968 11.6802 54.7418 14.2972 54.8871 16.1541C55.0033 17.6069 55.323 19.2329 54.4416 19.8583C53.0758 19.2136 53.6182 17.1547 53.5504 15.5672C53.4439 13.1522 53.318 10.5352 53.4051 8.3127C53.4536 8.12027 53.6667 8.08179 53.7054 7.87012C53.7926 7.87012 53.8895 7.87012 53.996 7.87012Z" fill="#EDEDED"/>
<path fill-rule="evenodd" clip-rule="evenodd" d="M54.887 21.3403C55.3035 21.6193 55.2841 22.9374 55.0323 23.4089C53.589 23.9573 53.5503 20.9651 54.887 21.3403Z" fill="#EDEDED"/>
<path fill-rule="evenodd" clip-rule="evenodd" d="M59.7982 31.1058C58.2581 31.1539 58.4712 29.4701 57.7157 28.7389C57.2507 28.306 56.3983 28.2771 56.5243 27.2572C56.6405 27.1322 56.9311 27.1707 56.9698 26.959C58.6746 27.4497 60.2631 29.422 59.7982 31.1058Z" fill="#EDEDED"/>
<path fill-rule="evenodd" clip-rule="evenodd" d="M21.5188 30.2106C21.7803 31.0669 22.1968 32.462 21.8191 33.4626C20.3274 33.8282 19.7366 29.9219 21.5188 30.2106Z" fill="#EDEDED"/>
<path fill-rule="evenodd" clip-rule="evenodd" d="M18.6903 31.5479C19.1843 32.3079 19.3587 33.6453 19.5815 34.7999C19.7945 35.8871 20.366 37.2437 19.5815 37.9075C18.4191 37.8594 18.5935 36.2431 18.3901 35.2424C18.1576 34.1071 17.7411 33.0969 17.7895 31.9904C17.7508 31.7499 17.9348 31.7307 17.9445 31.5479C18.1867 31.5479 18.4385 31.5479 18.6903 31.5479Z" fill="#EDEDED"/>
<path fill-rule="evenodd" clip-rule="evenodd" d="M27.6207 47.673C27.6304 48.9718 27.4754 51.0308 27.4754 53.1475C27.4754 54.2058 27.7079 55.37 27.1751 56.1012C25.6641 56.0146 26.0322 52.8877 26.129 50.925C26.1872 49.7512 26.3906 48.3753 26.5746 47.9616C26.623 47.7692 26.8361 47.7307 26.8652 47.519C27.3011 47.4036 27.2623 47.7307 27.6207 47.673Z" fill="#EDEDED"/>
<path fill-rule="evenodd" clip-rule="evenodd" d="M29.8583 48.2695C30.1392 49.0488 30.8656 51.6081 29.713 51.9641C28.8025 51.7524 28.3279 48.1733 29.8583 48.2695Z" fill="#EDEDED"/>
<path fill-rule="evenodd" clip-rule="evenodd" d="M55.6327 55.515C55.5552 56.6792 54.9062 57.7375 54.4413 58.767C54.0539 59.6329 53.7827 61.0761 52.5041 61.1339C51.981 60.3642 52.7172 59.1519 53.1046 58.3244C53.5889 57.2757 54.1701 56.3906 54.5963 55.3611C54.9837 55.3707 55.439 55.313 55.6327 55.515Z" fill="#EDEDED"/>
<path fill-rule="evenodd" clip-rule="evenodd" d="M57.57 56.112C57.5506 57.2858 57.2601 58.1709 56.3786 58.4788C55.3228 57.8534 56.4755 55.0729 57.57 56.112Z" fill="#EDEDED"/>
<path fill-rule="evenodd" clip-rule="evenodd" d="M42.2272 67.5027C42.1787 68.2147 41.9269 69.1576 41.7816 70.0139C41.6654 70.6681 42.1012 71.7361 41.1908 71.7938C40.0091 71.1299 40.4352 66.1557 42.2272 67.5027Z" fill="#EDEDED"/>
<path fill-rule="evenodd" clip-rule="evenodd" d="M39.399 68.6866C39.0309 70.5531 39.0406 73.0354 38.7985 74.6037C37.8202 74.8346 37.6846 73.7474 37.6071 73.122C37.4327 71.6884 38.072 69.2157 38.4982 68.3883C38.9728 68.321 39.0793 68.6 39.399 68.6866Z" fill="#EDEDED"/>
<path fill-rule="evenodd" clip-rule="evenodd" d="M28.2214 79.7793C28.7154 80.6356 28.88 83.3969 27.4756 83.3296C27.4756 83.1852 27.2915 83.2141 27.1753 83.1852C27.34 82.3482 26.7975 79.8274 28.2214 79.7793Z" fill="#EDEDED"/>
<path fill-rule="evenodd" clip-rule="evenodd" d="M26.4297 80.0771C26.8753 81.2413 26.391 83.156 26.1294 84.8108C25.897 86.2348 25.9648 88.4958 24.4925 88.6594C23.9598 87.4471 24.5603 86.0424 24.7928 84.6665C25.0155 83.3195 25.3352 81.9148 25.3933 80.5197C25.6064 80.4331 25.7517 80.2888 25.8389 80.0771C26.0326 80.0771 26.236 80.0771 26.4297 80.0771Z" fill="#EDEDED"/>
<path fill-rule="evenodd" clip-rule="evenodd" d="M9.89536 84.8115C10.3409 85.7929 10.0794 87.9 10.0406 89.6895C10.0213 90.5747 10.3506 91.787 9.4498 91.912C8.49088 91.7004 8.84926 90.0263 8.84926 88.8044C8.84926 87.5151 8.73303 85.8314 8.99456 85.2541C8.95581 85.0136 9.13016 85.0039 9.13985 84.8115C9.40137 84.8115 9.65321 84.8115 9.89536 84.8115Z" fill="#EDEDED"/>
<path fill-rule="evenodd" clip-rule="evenodd" d="M78.8699 116.032C79.0443 117.014 77.7948 117.274 76.9327 117.658C75.3539 118.38 73.9591 118.9 71.5666 119.14C70.7821 119.217 69.1936 119.785 69.0386 118.544C69.4066 117.784 70.4624 118.034 71.1211 117.957C73.6007 117.668 76.2353 116.754 77.9691 115.59C78.3759 115.638 78.6762 115.782 78.8699 116.032Z" fill="#EDEDED"/>
<path fill-rule="evenodd" clip-rule="evenodd" d="M68.2925 121.661C68.3216 123.21 67.2077 124.884 66.21 126.096C62.7812 130.262 55.8556 134.361 49.0754 134.534C48.3877 134.553 47.4869 134.534 46.6926 134.39C46.1599 134.294 45.1041 134.38 45.0557 133.505C45.385 132.417 46.7023 133.033 47.4384 133.062C52.4752 133.245 55.7297 131.927 59.3523 129.81C61.9675 128.28 64.4278 126.395 65.9098 124.191C66.4328 123.402 66.675 122.325 67.2464 121.68C67.353 121.545 67.5176 121.459 67.692 121.382C67.9148 121.44 68.0697 121.584 68.2925 121.661Z" fill="#EDEDED"/>
<path fill-rule="evenodd" clip-rule="evenodd" d="M78.4241 130.531C77.4458 130.791 76.8066 129.742 76.1867 129.05C74.9178 127.616 73.9201 126.414 72.4575 124.759C71.6342 123.825 70.3169 123.113 70.8206 121.949C70.9174 121.949 71.024 121.949 71.1209 121.949C72.1088 122.19 72.6706 123.133 73.3583 123.873C74.6175 125.24 75.9058 126.519 77.2328 128.02C77.7945 128.665 78.8019 129.512 78.4241 130.531Z" fill="#EDEDED"/>
<path d="M98.9973 72.2949C98.639 72.2949 98.329 72.0352 98.2806 71.6696C97.2732 64.2708 92.9629 63.1451 92.7789 63.1066C92.4786 63.0296 92.2558 62.7795 92.2268 62.462C92.1977 62.1541 92.3721 61.8654 92.6627 61.7404C98.1934 59.3639 98.2806 53.4757 98.2806 53.2255C98.2806 52.831 98.6099 52.5039 99.007 52.5039C99.3945 52.5039 99.7141 52.8118 99.7335 53.1966C99.7335 53.2063 99.7335 53.2063 99.7335 53.2159C99.7335 59.7006 105.071 61.6249 105.293 61.7019C105.574 61.7981 105.768 62.0482 105.778 62.3465C105.797 62.6351 105.632 62.9142 105.371 63.0392C99.8207 65.7043 99.7238 71.3232 99.7238 71.5637C99.7238 71.9389 99.4235 72.2565 99.0458 72.2853C99.0264 72.2949 99.007 72.2949 98.9973 72.2949ZM94.6192 62.3561C95.9365 63.1355 97.8156 64.7807 98.9489 68.1289C99.6076 66.2816 100.915 64.0687 103.492 62.4427C102.107 61.6345 99.995 59.9893 98.9295 57.1125C98.2418 58.8925 96.9729 60.9225 94.6192 62.3561Z" fill="#EDEDED"/>
<path d="M83.5578 49.6756C83.1994 49.6756 82.8894 49.4158 82.841 49.0502C82.2695 44.8264 79.8577 44.1818 79.7608 44.1529C79.4605 44.076 79.2378 43.8162 79.2087 43.5083C79.1797 43.2004 79.354 42.9118 79.6446 42.7867C82.7732 41.4397 82.841 38.1011 82.841 37.9472C82.841 37.5527 83.1703 37.2256 83.5674 37.2256C83.9646 37.2256 84.2842 37.5431 84.2939 37.9376C84.2939 41.6129 87.3063 42.7097 87.4419 42.7578C87.7228 42.8541 87.9068 43.1042 87.9262 43.4025C87.9455 43.6911 87.7809 43.9701 87.5193 44.0952C84.3617 45.6057 84.3036 48.8193 84.2939 48.954C84.2939 49.3292 83.9936 49.6467 83.6159 49.6659C83.5868 49.6756 83.5674 49.6756 83.5578 49.6756ZM81.4559 43.4313C82.1436 43.922 82.9475 44.7495 83.5384 46.1157C83.9549 45.2305 84.6329 44.278 85.7081 43.4987C84.9235 42.9695 84.0808 42.1421 83.519 40.9971C83.0928 41.8438 82.4535 42.729 81.4559 43.4313Z" fill="#EDEDED"/>
</g>
<defs>
<clipPath id="clip0_3443_3283">
<rect width="141" height="203" fill="white" transform="translate(0.5)"/>
</clipPath>
</defs>
</svg>
