<svg width="163" height="178" viewBox="0 0 163 178" fill="none" xmlns="http://www.w3.org/2000/svg">
<g clip-path="url(#clip0_3443_3319)">
<path fill-rule="evenodd" clip-rule="evenodd" d="M97.7845 26.5554C99.6065 25.3608 101.884 24.0115 103.904 22.7395C105.863 21.502 107.934 20.3503 109.438 19.0526C112.713 16.2337 114.621 12.6069 118.617 10.8451C121.264 9.67625 125.028 8.53321 127.744 7.5019C128.612 7.17532 129.678 6.2987 130.443 6.96046C130.511 7.75113 129.626 8.01755 129.162 8.41289C127.555 9.76219 125.957 11.1459 124.332 12.5553C122.184 14.4289 120.069 16.4915 117.457 17.8494C114.44 19.4135 112.051 19.1815 109.249 20.6683C105.33 22.7481 101.661 25.7991 97.7759 27.7156C102.193 28.3602 107.642 29.168 112.206 30.0962C112.996 30.2595 113.753 30.5689 114.286 30.4658C115.093 30.3111 116.004 29.7524 116.907 29.4516C117.766 29.168 118.772 29.0047 119.511 28.6953C121.075 28.0422 122.338 26.8046 123.636 25.8764C122.098 23.1692 128.758 18.4338 130.211 21.3473C131.139 23.2208 128.483 26.0053 126.008 26.6241C125.338 26.7874 124.822 26.5296 124.229 26.6327C123.774 27.3117 122.674 27.7414 122.192 28.4117C124.289 28.0422 126.094 28.4203 127.993 28.5578C129.678 26.0483 134.688 25.9967 135.702 29.2798C134.989 32.5026 128.99 32.6057 127.933 29.6063C124.349 29.1508 120.619 29.0821 116.133 30.9213C120.233 32.0643 123.971 33.0011 128.105 34.3762C129.291 34.7715 131.079 35.7512 132.076 35.5794C132.875 35.4418 134.087 34.7973 135.127 34.3762C136.192 33.9378 137.421 33.5683 138.169 33.173C139.226 32.6229 139.819 31.5401 140.704 30.7924C143.91 28.0852 148.327 28.6696 151.593 28.85C153.793 28.9704 155.804 29.168 157.858 29.1766C158.451 29.1766 159.56 28.7469 159.869 29.7009C159.534 30.6291 158.391 30.3626 157.678 30.5259C153.028 31.5916 147.923 34.7199 143.841 34.7715C142.191 34.7973 140.73 34.1957 139.157 34.2644C137.387 34.3418 135.213 35.4504 133.348 36.1552C134.68 36.7482 136.012 37.2466 137.395 37.8311C138.745 38.3983 140.111 39.146 141.495 39.6187C143.661 40.3578 145.62 40.5554 147.477 41.3461C149.367 42.1454 150.966 43.4345 152.796 44.7666C155.349 46.6316 158.013 48.5911 160.574 50.3099C161.382 50.8514 162.654 51.1951 162.981 52.321C162.044 52.9741 160.909 52.2178 160.119 51.9085C155.504 50.0951 150.51 48.7458 146.445 46.0042C144.494 44.6979 143.686 42.9017 141.882 41.1055C141.168 40.4007 139.303 39.739 138.152 39.2835C136.914 38.7936 135.702 38.235 134.568 37.7881C128.225 35.2957 122.158 33.68 115.755 32.0901C114.509 31.7807 113.254 31.2994 111.974 31.3166C113.452 32.2104 114.518 33.7316 116.03 34.7801C117.251 35.6223 118.72 35.9317 120.018 36.6107C121.35 37.3154 122.484 38.192 123.688 39.4726C125.415 41.3203 126.739 43.8127 128.337 45.7378C128.801 46.305 129.807 46.7691 129.592 47.7402C128.844 48.2387 128.294 47.4222 127.796 47.1214C123.997 44.844 119.047 44.0447 116.486 39.0428C116.116 38.3295 115.927 37.5217 115.506 36.7911C114.268 34.6512 110.152 31.0674 108.407 30.4486C107.427 30.1048 106.13 30.0275 105.081 29.8556C101.592 29.2798 98.4635 28.936 94.8797 28.6953C96.0571 29.4688 97.0712 30.6634 98.2486 31.4369C100.732 30.5861 104.436 33.5941 104.634 36.4302C104.686 37.0748 104.247 37.917 103.758 38.2178C101.48 39.6187 97.5955 36.5247 97.0798 33.7316C96.9423 33.0011 97.3204 32.5284 97.1743 31.901C95.3781 30.7924 94.1062 28.8329 92.0693 28.386C90.8232 28.1109 89.1989 28.1711 87.7378 28.1023C83.329 27.9047 78.5849 28.0938 74.262 28.4977C76.0153 29.4516 77.9404 29.6837 79.8311 30.1478C84.5408 31.308 88.5629 34.8832 92.6538 37.3154C93.4616 37.7967 94.5531 38.1662 94.9656 39.1116C94.4757 39.7304 93.7624 39.2405 93.2897 39.0772C91.5451 38.467 89.9036 38.1834 88.1246 37.7537C85.9244 37.2295 83.5266 36.9458 81.2492 36.0348C79.4358 35.3043 77.9404 33.723 76.2215 32.1073C74.7261 30.6978 72.6119 29.0133 70.7814 28.9961C69.7071 28.9876 68.3492 29.3485 67.0858 29.5892C63.2786 30.3111 58.8181 31.4627 55.1312 32.8893C54.0999 33.2847 53.0772 34.1011 51.8826 33.9207C50.3184 32.0901 53.0944 31.4885 54.3405 31.0674C57.8212 29.89 60.4854 29.2626 63.7341 28.6266C65.2724 28.3258 67.0171 28.3688 68.2718 27.9219C69.9907 27.3203 71.6408 26.1429 73.1792 25.1459C74.7089 24.1576 76.17 23.0919 77.5794 22.0778C80.3554 20.0925 82.5641 17.2306 85.5033 15.6836C87.7894 14.489 90.2216 13.9304 92.542 13.3804C94.3554 12.9507 95.911 12.5124 97.7501 11.8764C98.1627 11.7303 98.9104 11.017 99.4346 11.6529C99.6581 12.4178 98.7385 12.8217 98.3088 13.1655C96.6071 14.5234 95.0601 15.7954 93.4358 17.2048C91.2873 19.0612 89.1215 21.2957 86.251 22.3786C84.5236 23.0231 83.054 22.8598 81.5586 23.0231C77.949 23.4185 74.855 25.1889 71.6838 27.5867C79.8139 26.6241 87.4542 26.9421 94.9914 27.5007C97.5181 25.2491 99.7182 22.92 101.592 20.4105C102.288 19.4737 103.122 18.683 103.25 17.772C103.431 16.4313 102.795 15.2024 102.984 13.9304C103.354 11.4037 105.433 9.10043 106.748 7.055C107.316 6.16979 107.934 5.28458 108.51 4.37359C109.043 3.54854 109.309 2.24221 110.478 1.85547C111.235 2.62036 110.47 3.59151 110.298 4.3564C109.688 7.00343 109.816 9.80516 109.043 12.3061C108.364 14.4804 106.92 16.1993 105.193 17.815C103.517 19.3878 102.219 21.5449 100.775 23.1864C99.7096 24.3982 98.5752 25.4123 97.6642 26.5812C97.7158 26.5812 97.7502 26.564 97.7845 26.5554ZM109.034 5.82602C108.553 6.1526 108.08 6.88311 107.634 7.58784C105.949 10.2263 103.414 13.2343 104.273 16.8353C108.416 14.532 108.287 9.77078 109.034 5.82602ZM79.4272 22.1809C81.7562 21.6137 83.8876 22.2153 86.1823 21.2785C90.1356 19.6628 92.86 15.6493 96.2204 13.5866C93.5647 14.2742 90.8747 14.8758 88.2449 15.7868C84.3517 17.1361 82.0055 20.0237 79.4272 22.1809ZM75.9551 30.3283C75.8434 30.4056 75.9465 30.4572 75.9981 30.4314C78.0865 32.58 79.9171 34.3848 82.4438 35.27C84.8931 36.138 87.5574 36.3528 90.1013 37.0318C87.8238 35.5536 85.701 33.9378 83.3634 32.7003C81.0343 31.4713 78.5076 31.1017 75.9551 30.3283ZM111.51 18.5283C118.376 17.7806 122.588 12.2717 127.1 8.92855C124.092 9.95126 120.929 10.8107 118.127 12.3319C115.205 13.9046 113.409 16.7579 111.51 18.5283ZM116.546 36.2325C118.179 41.9391 122.811 43.34 126.489 45.2909C125.183 43.1509 123.799 40.9851 122.141 39.4038C120.422 37.7709 118.411 37.1263 116.546 36.2325ZM139.965 33.1644C142.913 34.0668 146.187 33.6886 150.02 32.2276C151.602 31.6174 153.269 30.7494 154.893 30.2337C153.123 30.0275 151.017 29.9759 148.886 29.9157C146.712 29.8556 144.597 29.7009 142.44 30.9385C141.383 31.5401 140.911 32.3651 139.965 33.1644ZM143.472 41.2C146.901 46.7949 152.9 47.7918 157.987 49.9232C155.908 48.2215 153.441 46.58 151.078 44.9041C148.688 43.2025 146.265 41.7243 143.472 41.2Z" fill="#EDEDED"/>
<path fill-rule="evenodd" clip-rule="evenodd" d="M84.9873 132.66C82.5208 132.213 80.123 132.145 77.6908 132.016C72.7577 131.749 67.9277 131.096 63.9314 128.836C62.5305 128.045 61.3789 126.988 59.9952 125.957C58.749 125.029 57.3138 124.393 55.9301 123.645C54.5378 122.906 53.1542 122.106 51.7533 121.385C51.7963 121.496 51.8908 121.471 51.951 121.556C53.0596 122.863 53.5409 125.278 54.4433 126.979C55.4574 128.879 57.3739 129.592 58.8436 130.924C62.7711 134.499 64.4298 141.426 67.5925 147.778C67.7988 148.199 68.2371 148.706 68.4605 149.187C68.641 149.574 69.2426 150.278 68.641 150.768C67.6011 150.949 67.4206 149.711 67.0511 149.17C65.6502 147.099 64.0087 145.491 62.2985 143.841C60.1069 141.727 57.4685 139.742 55.9129 136.803C53.773 132.763 54.1855 129.36 52.9307 125.854C52.1315 123.619 50.6704 121.067 49.4243 119.855C49.0203 119.468 48.3586 119.219 47.8515 118.884C44.07 116.34 40.7183 113.684 37.2376 110.625C38.9479 115.111 41.5433 119.236 44.113 122.296C47.946 119.571 52.8104 128.44 49.7508 130.555C46.6655 132.677 42.7379 126.361 43.4856 123.207C41.6722 121.333 40.1768 118.669 38.5611 116.297C38.8447 117.5 38.8275 118.591 38.9049 119.717C41.7066 121.178 43.1161 128.002 40.194 129.102C38.4752 129.755 37.0227 127.658 36.3524 125.553C35.5703 123.095 35.8883 120.465 37.9251 119.511C37.7017 117.87 37.6157 116.116 37.2032 114.337C36.7907 112.584 36.1977 110.255 35.0461 108.519C34.5648 107.788 33.5249 106.998 32.76 106.199C30.4653 103.818 27.973 101.025 25.9276 98.7215C26.3745 100.062 26.1596 101.308 26.6151 102.632C27.2167 104.394 28.4543 105.803 29.4512 107.393C30.4223 108.931 31.4193 110.616 32.1068 112.61C33.2671 115.953 32.9405 119.408 33.1038 122.51C33.1897 124.006 33.2585 125.372 33.4303 127.349C33.5593 128.896 34.3843 131.887 33.6452 132.231C32.717 132.669 32.4764 130.993 32.1326 130.211C29.3824 124.049 25.6096 117.38 25.2572 111.518C25.0853 108.699 25.5322 106.164 25.2658 103.354C24.9994 100.569 24.6728 97.5011 22.8594 94.3213C21.8281 92.5079 20.3499 90.7632 19.1725 88.7865C17.9607 86.7497 16.8692 84.6011 15.7434 82.3752C14.0589 79.0578 12.5549 75.4826 10.8102 72.5348C10.2344 71.5551 9.34063 70.7386 9.28906 69.6299C10.8017 67.5072 11.7384 71.3574 12.1767 72.4489C12.8987 74.2451 13.9128 76.0842 14.8667 78.0351C15.8035 79.9516 16.6801 82.0229 17.6943 83.948C19.6537 87.6435 21.8625 91.0468 24.0196 94.072C26.1166 97.0198 28.205 100.062 31.0841 102.09C32.3045 102.95 33.903 103.603 35.3641 104.308C36.9368 105.064 38.3291 105.924 39.8245 106.061C41.4316 106.207 42.7809 105.795 44.0786 105.863C47.2155 106.044 49.45 108.356 51.9166 110.1C52.5698 110.564 53.3003 110.994 54.048 111.467C54.6324 111.836 55.6723 112.146 55.9043 113.083C55.0019 113.701 53.8589 113.134 53.0339 112.928C52.0541 112.696 51.0658 112.464 50.086 112.3C47.7999 111.931 45.0326 111.776 43.1505 110.728C41.655 109.894 40.6151 108.528 39.1799 107.479C38.14 106.723 36.7821 106.199 35.5617 105.614C34.3413 105.03 33.1639 104.428 32.0381 103.964C39.2487 111.682 47.2757 117.603 55.784 122.442C57.0474 123.164 58.4826 123.954 59.5741 124.109C60.9664 124.298 62.3071 123.98 63.5618 123.903C64.8681 123.817 66.2432 123.765 67.4894 123.843C72.4913 124.161 76.7884 126.971 81.034 129.162C82.6669 130.005 84.3857 130.718 85.9928 131.466C86.4827 131.698 87.3421 131.878 87.2906 132.686C86.6202 133.425 85.692 132.781 84.9873 132.66ZM26.6323 105.038C26.5292 105.055 26.5463 105.124 26.5721 105.193C26.2026 108.493 26.0221 112 27.2597 116.125C28.4543 120.113 30.4223 124.384 32.4678 128.655C32.3818 126.017 32.0982 123.43 31.9435 120.723C31.7974 118.127 31.9177 115.351 31.0068 112.713C30.0528 109.989 28.2394 107.711 26.6323 105.038ZM40.5636 107.127C43.1762 110.719 47.946 110.805 52.0111 111.45C50.2493 110.496 48.9688 108.82 47.2757 107.9C45.2474 106.8 43.1075 106.989 40.5636 107.127ZM60.9234 125.166C61.4133 126.043 62.3586 126.472 63.1321 127.014C65.4612 128.647 68.1082 129.661 71.0302 130.202C74.8203 130.907 78.9455 130.718 82.7528 131.337C79.5214 129.704 76.2469 127.538 72.7061 126.146C69.045 124.711 65.2635 124.908 60.9234 125.166ZM54.8988 129.197C54.7957 129.214 54.8129 129.283 54.8386 129.351C55.3457 131.672 55.6035 133.906 56.738 136.046C58.8694 140.069 62.8313 142.148 65.2119 145.234C63.7939 141.822 62.7368 138.736 61.3015 135.969C59.6171 132.712 57.0989 130.984 54.8988 129.197Z" fill="#EDEDED"/>
<path fill-rule="evenodd" clip-rule="evenodd" d="M85.4344 120.215C84.6437 119.614 83.982 118.943 83.3288 118.325C82.5725 117.611 81.9623 116.821 81.2404 116.176C80.4669 115.471 79.3496 114.964 78.4043 114.354C75.4479 112.455 72.3883 110.873 69.3889 109.481C65.2465 107.556 60.872 106.396 56.8757 104.479C54.7787 103.474 52.8364 102.52 50.9714 101.188C45.2047 97.0452 40.6927 91.2441 35.3041 85.443C31.789 81.6615 28.2654 78.241 25.266 74.1329C22.1548 69.8702 20.118 64.3183 17.6257 58.0702C13.6207 48.0064 8.5931 38.0886 3.63421 29.4685C3.12715 28.5919 1.61456 26.4262 1.47705 25.6871C1.34814 25.0081 2.36226 23.0143 2.81776 22.0431C4.57958 18.2874 6.83987 14.7981 9.32361 11.8073C13.5434 6.72813 20.1438 1.12467 27.5349 0.0332031C33.0266 14.7981 40.4262 32.5797 48.8486 43.9327C60.7431 45.9437 72.8868 44.8265 84.4117 46.7946C88.2103 47.4477 92.0434 48.1439 95.8163 48.9603C99.6665 49.794 103.405 50.662 107.341 50.8253C111.329 50.98 115.299 50.9112 119.236 51.7621C123.051 52.5871 126.747 53.6098 130.58 54.0825C133.485 54.4435 136.459 54.7872 139.2 55.4232C140.094 55.6295 141.349 55.681 141.804 56.7124C141.555 57.4171 140.695 57.7179 139.802 57.9671C137.533 62.7627 129.893 62.0752 126.171 61.2329C125.045 60.9751 124.014 60.3477 122.974 60.3305C121.883 60.3134 120.671 60.7173 119.493 60.829C118.316 60.9407 117.173 61.0439 116.021 61.0696C112.79 61.1384 110.117 60.3735 106.783 61.5251C112.756 64.2667 117.912 68.4263 123.284 72.4484C127.916 75.9205 132.866 79.4528 137.172 83.2342C137.859 83.8358 138.375 84.6093 139.063 85.2195C141.16 87.0845 143.764 87.8837 145.165 90.7284C144.795 91.6566 144.339 92.052 143.454 92.3699C142.595 92.6793 141.753 92.3614 141.091 92.5075C140.008 92.7395 138.908 93.3583 138.057 93.4442C135.934 93.6677 133.562 92.7309 131.646 91.9059C127.374 90.0667 124.237 86.9298 120.344 84.7125C118.342 83.578 116.46 82.4694 114.767 81.2748C116.167 84.1109 117.835 86.9727 119.399 89.8432C120.997 92.7997 122.828 95.7303 123.954 98.8242C124.246 99.6235 124.263 100.56 124.555 101.368C125.355 103.594 127.306 106.121 127.013 108.458C124.598 109.326 123.086 107.9 121.625 106.344C115.841 106.602 113.254 101.445 110.186 94.7506C110.968 98.2484 111.011 101.91 111.888 106.258C112.231 107.986 112.377 109.791 112.584 111.948C112.687 113.039 113.374 116.726 112.36 117.276C111.131 117.946 109.756 116.322 109.43 115.239C108.742 115.11 108.037 114.973 107.367 114.603C106.679 114.234 106.155 113.538 105.597 113.46C107.229 119.038 109.722 126.824 111.38 132.875C112.008 135.152 112.644 137.318 112.42 139.054C112.154 141.082 110.779 142.277 108.682 143.36C109.739 146.901 110.899 150.51 111.991 154.163C113.065 157.772 113.907 161.511 115.188 165.017C116.468 168.515 118.488 172.133 118.926 175.631C118.196 177.058 114.99 178.175 113.933 177.041C112.601 174.591 112.163 171.79 111.621 169.117C109.971 160.935 106.568 152.977 104.264 144.64C101.557 145.061 99.5376 144.709 98.1023 142.225C96.4179 139.303 95.5756 135.384 94.4584 131.826C93.2981 128.139 92.1637 124.59 91.1238 121.547C90.1784 123.962 87.0157 121.427 85.4344 120.215ZM80.5443 114.569C81.0685 113.735 80.9568 112.953 82.0654 112.498C84.5234 111.492 87.0845 115.66 88.7776 117.353C90.5222 112.73 84.8672 107.066 81.9193 104.264C79.5387 102.004 76.6081 99.7868 74.2361 98.0508C71.7695 96.2546 69.1225 94.1662 67.1114 90.187C65.7879 87.5829 63.201 80.7849 65.4785 79.4184C66.527 78.7824 68.3834 79.4528 69.5436 79.6848C76.1096 80.9997 82.8991 80.7763 89.8518 80.9052C92.5762 80.9568 95.3522 80.7849 97.6468 82.0998C97.8789 85.7438 98.7469 90.1354 100.294 94.5959C101.042 96.7616 101.815 98.85 102.056 100.973C102.408 104.067 102.7 106.636 104.462 110.005C105.536 112.051 107.212 113.709 108.862 113.959C107.771 110.005 106.602 106.018 110.538 104.041C110.014 99.6579 108.957 95.5326 108.69 91.3214C108.562 89.276 108.622 87.2306 108.441 85.1766C108.252 83.1311 108.209 80.9396 107.771 78.9629C107.694 78.6277 107.573 78.2496 107.461 77.9488C104.814 71.1507 98.3172 69.6381 93.0403 68.2888C88.1931 67.0513 83.3718 66.0114 78.4473 64.9543C77.9144 64.8425 76.8745 65.0316 76.7026 64.1808C76.9175 63.3213 77.9144 63.7597 78.3441 63.8456C80.1661 64.198 81.9537 64.705 83.8788 65.1261C88.7174 66.2004 93.7279 67.12 98.4547 68.7185C102.236 69.9991 106.705 72.3969 108.605 77.9402C109.326 80.0458 109.266 82.6241 109.447 84.8414C109.533 85.8555 109.713 86.8524 109.756 87.8923C109.808 89.2502 109.49 90.3073 110.074 91.8371C110.805 93.745 112.154 96.2975 113.331 98.7125C115.36 102.881 117.611 105.115 120.74 105.175C119.863 103.542 118.428 101.875 118.23 100.019C118.024 98.0164 120.963 96.6069 122.287 97.6124C118.393 90.2815 114.423 82.6584 110.246 75.5596C108.854 73.1962 107.642 71.1679 105.743 69.6123C102.339 66.845 97.9562 65.891 93.9599 64.5417C90.4277 63.3471 86.9556 62.2041 83.4147 60.8462C82.9506 60.6743 82.1944 60.6829 82.0397 60.0383C82.5467 58.9984 83.5694 59.8665 84.0851 60.0383C88.9323 61.7228 93.9341 63.2268 98.8586 64.9543C103.259 66.5012 107.023 68.1169 110.014 72.9727C110.968 74.5283 112.016 76.8573 113.349 78.284C115.076 80.1317 116.975 81.4552 119.09 82.667C121.023 83.7843 122.94 84.9961 124.968 86.4829C128.26 88.9065 133.253 92.4473 137.49 92.3785C138.289 92.3699 139.08 92.1207 139.819 91.8715C140.085 91.5707 139.484 91.4933 139.372 91.4332C138.117 90.7284 134.903 89.2588 134.293 87.3939C133.889 86.1391 134.628 84.6609 136.201 83.8788C132.213 80.4239 128.045 77.287 123.937 74.1759C119.811 71.0476 115.772 67.8161 111.363 65.2465C104.823 61.422 97.7843 59.0844 90.9003 56.0592C89.2073 55.3115 87.4626 54.7357 85.6664 54.0052C85.1766 53.8075 84.4031 53.6356 84.3085 52.9395C85.0391 52.1488 86.268 52.8707 86.9642 53.1801C92.7911 55.7842 99.211 58.2765 105.098 60.8376C106.576 60.6142 107.805 59.9266 109.086 59.7375C110.805 59.4883 112.927 59.9094 114.784 59.9352C116.743 59.961 118.574 59.8493 120.662 59.6688C120.997 59.4367 120.31 58.9125 120.826 58.5773C122.029 58.6547 123.241 59.093 124.547 59.5055C125.733 59.8836 126.919 60.1243 128.225 60.3305C131.551 60.8376 136.175 61.2931 138.71 58.0531C137.67 57.7952 136.158 57.9757 134.637 57.7866C132.832 57.5632 130.743 57.2022 130.486 55.0021C128.294 54.899 126.249 54.4864 124.203 54.0395C122.175 53.6012 120.164 52.9309 118.041 52.7762C118.075 53.3778 118.041 54.0911 117.989 54.7099C117.938 55.2857 118.041 56.1108 117.319 56.403C116.503 56.2139 116.838 55.1998 116.898 54.5466C116.95 53.8591 117.173 53.0598 117.01 52.4582C110.53 51.8394 104.273 52.0543 97.9906 50.6706C91.9488 49.3385 85.8555 47.7571 79.745 47.1469C70.1624 46.1844 60.3821 46.5625 50.9886 45.2734C48.6939 44.9554 46.3821 44.6374 44.0272 44.2249C43.3741 44.1132 42.3428 44.096 41.9818 43.3311C42.6092 42.3943 43.8038 43.0733 44.6031 43.2108C45.557 43.3655 46.5368 43.3998 47.3532 43.6663C39.5754 32.8891 32.15 15.7521 26.8989 1.20202C19.8946 2.7318 13.8872 8.03446 10.2346 12.4261C7.85399 15.2966 5.61948 18.4765 3.96939 22.0517C3.4967 23.083 2.5943 25.0339 2.68884 25.541C2.85213 26.4434 4.10689 27.9817 4.80303 29.2107C8.34387 35.5017 11.3948 42.0334 14.8153 48.9517C18.8289 57.0819 21.1665 66.4411 25.9621 73.05C28.9787 77.2011 32.3219 80.6474 35.6908 84.2398C39.0512 87.8322 42.3943 91.6566 45.6516 95.0771C50.7995 100.492 56.3944 103.396 62.7971 105.717C68.8389 107.926 75.1728 110.444 80.5443 114.569ZM66.1059 80.295C66.0028 80.3122 66.0285 80.381 66.0457 80.4497C65.3926 81.6615 65.8738 83.5866 66.3723 85.2883C66.9395 87.2478 67.7474 89.1471 68.5982 90.6941C70.3858 93.9083 73.136 95.8162 75.3705 97.4406C77.6996 99.1336 80.1145 101.231 82.4436 103.414C85.2797 106.078 87.8752 108.295 89.6542 112.644C89.8518 113.005 90.1956 112.334 90.4191 112.059C91.0378 111.277 92.0692 110.186 93.3841 109.49C96.6757 107.745 100.535 107.943 102.64 108.768C101.738 106.49 101.308 104.376 101.05 102.193C100.792 100.019 100.32 98.0937 99.5032 95.7217C98.0078 91.3816 96.8132 86.9212 96.6757 82.7959C94.467 81.842 91.8113 81.9709 89.1729 81.9795C82.7616 82.0139 76.1612 81.9881 70.1108 80.9826C68.7787 80.7591 67.438 80.295 66.1059 80.295ZM131.723 55.5092C132.6 56.6608 134.637 56.6436 136.106 56.7897C137.395 56.91 138.727 57.0561 139.931 56.7811C137.258 56.1795 134.688 55.3459 131.723 55.5092ZM144.056 90.823C143.265 89.6885 142.096 88.7604 141.013 87.9439C139.449 86.7579 138.023 85.6664 136.295 85.0219C135.866 85.4859 135.092 86.3797 135.298 87.1189C135.487 87.8064 136.656 88.408 137.352 88.9065C138.169 89.4823 138.77 89.8776 139.484 90.2729C141.074 91.1582 142.999 92.3098 144.056 90.823ZM89.9722 121.556C89.4995 119.141 86.8868 116.717 85.0734 115.016C84.5406 114.517 83.8874 113.529 83.1139 113.443C82.2545 113.349 81.6959 114.191 81.7904 114.784C81.9193 115.609 83.0194 116.606 83.6038 117.182C85.486 119.064 87.7291 120.869 89.9722 121.556ZM119.356 99.4258C119.442 101.403 120.783 103.439 121.891 104.952C123.051 106.533 124.409 107.797 126.042 107.736C124.925 104.453 123.369 100.603 121.35 98.4289C120.722 98.1797 119.614 98.9703 119.356 99.4258ZM99.5634 142.38C101.935 139.776 107.023 138.332 110.126 138.796C110.53 138.856 110.968 139.114 111.32 138.908C111.02 134.671 109.438 129.97 107.96 125.063C106.963 121.762 105.966 118.093 104.9 114.535C104.531 113.297 104.204 111.802 103.577 110.908C102.099 108.819 97.5609 108.922 94.9826 109.937C92.6879 110.839 90.2386 113.031 90.3331 114.775C90.4362 116.778 91.5019 119.261 92.327 121.685C93.1177 124.014 93.9083 126.429 94.5787 128.612C96.1085 133.536 97.3203 138.47 99.5634 142.38ZM110.504 105.459C110.057 105.7 109.447 106.086 109.189 106.542C108.51 107.762 109.043 112.695 110.366 115.085C110.676 115.652 111.131 116.348 111.767 116.262C111.458 112.695 111.432 109.258 110.504 105.459ZM89.869 117.517C89.6542 117.697 89.7401 117.998 89.5253 118.179C89.7831 118.574 90.0925 118.84 90.2987 119.373C90.5136 118.9 90.0581 118.153 89.869 117.517ZM104.419 140.644C104.058 141.177 104.565 141.701 104.703 142.174C106.903 149.711 109.601 157.927 112.008 165.653C112.661 165.507 113.357 165.232 114.027 165.026C111.595 156.724 109.017 148.37 106.593 140.077C105.897 140.206 105.158 140.429 104.419 140.644ZM103.285 141.263C102.107 141.426 100.981 142.371 100.517 143.11C101.36 143.978 102.674 143.643 103.895 143.549C103.826 142.835 103.31 141.95 103.285 141.263ZM107.762 139.819C107.736 140.524 108.08 141.366 108.424 142.208C109.387 141.641 110.452 141.108 110.779 140.292C110.031 139.466 108.794 139.922 107.762 139.819ZM112.059 166.65C112.756 169.031 113.108 171.738 113.856 174.282C114.088 175.064 114.268 176.069 115.05 176.439C114.853 174.901 114.182 173.139 113.744 171.394C113.624 170.93 113.263 170.346 113.615 169.925C114.371 169.572 114.569 170.621 114.758 171.085C115.368 172.623 115.514 174.944 116.374 176.25C117.139 175.949 116.503 174.978 116.271 174.256C116.03 173.517 115.549 172.718 115.901 172.245C117.156 172.056 117.207 174.531 117.671 175.425C117.68 173.646 116.7 171.695 115.927 169.675C115.437 168.412 115.007 167.08 114.397 165.877C113.555 166.324 112.79 166.53 112.059 166.65Z" fill="#EDEDED"/>
<path fill-rule="evenodd" clip-rule="evenodd" d="M21.5877 56.5924C21.2525 57.2112 21.6908 58.2769 21.9745 59.2308C22.2409 60.1246 22.3956 61.4482 23.1605 61.6458C23.9769 61.3364 23.2808 60.1848 23.023 59.2824C22.7136 58.2253 22.6448 56.8588 21.9143 56.4463C21.8026 56.4979 21.6908 56.5494 21.5877 56.5924Z" fill="#EDEDED"/>
<path fill-rule="evenodd" clip-rule="evenodd" d="M23.8742 63.8886C23.3843 64.516 24.0289 65.3926 24.3382 66.1145C26.0571 70.171 28.1197 73.454 30.6207 76.1354C31.2051 76.7628 31.9012 77.9402 32.8552 77.4589C32.8122 76.5651 31.9012 75.9979 31.291 75.3361C28.7299 72.5774 26.229 68.2803 24.4586 63.7683C24.2953 63.8284 23.8398 63.5534 23.8742 63.8886Z" fill="#EDEDED"/>
<path fill-rule="evenodd" clip-rule="evenodd" d="M72.9814 57.1424C73.5487 58.2511 74.9495 58.5175 75.9293 58.9214C76.8918 59.3253 78.1036 60.1332 79.1435 59.5574C79.1177 58.5175 77.8802 58.6894 77.2614 58.4659C76.041 58.0276 74.812 57.2713 73.6948 56.7041C73.5487 56.7814 73.394 56.8502 73.3252 56.7385C73.1791 56.8674 73.119 57.0135 72.9814 57.1424Z" fill="#EDEDED"/>
<path fill-rule="evenodd" clip-rule="evenodd" d="M69.8105 62.7373C70.3176 63.3218 71.2544 63.5022 72.0107 63.6913C72.6724 63.8632 73.6608 64.3015 74.3139 63.7085C74.0045 62.7545 72.999 62.935 72.3716 62.7717C71.6755 62.5826 71.0567 62.3076 70.4121 62.0928C69.9223 62.1873 69.8621 62.4623 69.8105 62.7373Z" fill="#EDEDED"/>
<path fill-rule="evenodd" clip-rule="evenodd" d="M114.93 55.0451C116.099 55.492 116.735 52.6301 115.832 52.7332C115.136 52.8277 114.784 54.4864 114.93 55.0451Z" fill="#EDEDED"/>
<path fill-rule="evenodd" clip-rule="evenodd" d="M110.35 68.5292C110.994 69.509 112.498 67.9706 112.971 67.5151C112.799 65.9853 110.607 67.9448 110.35 68.5292Z" fill="#EDEDED"/>
<path fill-rule="evenodd" clip-rule="evenodd" d="M110.934 71.3311C111.664 72.0015 112.446 70.8326 113.031 70.2912C113.658 69.7068 114.672 69.045 114.603 68.3317C114.56 68.1426 114.423 68.1942 114.354 68.0567C113.71 68.0481 112.919 68.9935 112.231 69.6209C111.656 70.1451 110.736 70.6779 110.934 71.3311Z" fill="#EDEDED"/>
<path fill-rule="evenodd" clip-rule="evenodd" d="M103.732 77.9225C104.488 77.7593 105.52 77.9999 106.173 77.3725C106.104 77.2522 106.113 77.1748 106.19 77.1147C105.803 76.3842 103.036 76.5475 103.732 77.9225Z" fill="#EDEDED"/>
<path fill-rule="evenodd" clip-rule="evenodd" d="M103.113 80.6126C103.809 80.7415 104.428 80.0368 105.15 79.7274C105.915 79.4008 106.826 79.4781 107.342 78.9023C107.127 77.7593 104.428 78.6875 103.491 79.4352C103.053 79.7789 102.709 80.1571 103.113 80.6126Z" fill="#EDEDED"/>
<path fill-rule="evenodd" clip-rule="evenodd" d="M58.9043 102.958C59.5575 103.689 60.3997 102.486 61.0443 102.022C61.7834 101.489 62.8233 101.059 63.0124 100.397C62.9092 100.122 62.8061 99.8645 62.5655 99.9504C61.3709 100.621 59.2051 101.652 58.9043 102.958Z" fill="#EDEDED"/>
<path fill-rule="evenodd" clip-rule="evenodd" d="M62.4197 103.723C63.6401 103.431 65.1269 102.228 64.9636 101.085C64.2675 100.724 63.7432 101.755 63.2791 102.202C62.858 102.598 61.7923 102.967 62.4197 103.723Z" fill="#EDEDED"/>
<path fill-rule="evenodd" clip-rule="evenodd" d="M123.567 78.0689C124.349 78.8337 125.587 77.304 125.475 76.5992C124.771 75.8601 123.653 77.4501 123.567 78.0689Z" fill="#EDEDED"/>
<path fill-rule="evenodd" clip-rule="evenodd" d="M124.633 80.8014C125.398 80.8529 127.048 78.6958 126.825 77.9309C126.756 77.6902 126.645 77.6731 126.533 77.5527C126.464 77.5871 126.387 77.6129 126.318 77.6473C125.751 77.9481 125.527 78.6528 125.192 79.1599C124.926 79.5552 124.144 80.0795 124.633 80.8014Z" fill="#EDEDED"/>
<path fill-rule="evenodd" clip-rule="evenodd" d="M114.569 89.9032C114.913 90.8056 116.374 89.9376 116.95 89.5079C116.907 89.1555 116.907 89.1383 116.666 88.8633C116.039 89.0867 114.587 89.1555 114.569 89.9032Z" fill="#EDEDED"/>
<path fill-rule="evenodd" clip-rule="evenodd" d="M113.572 92.894C113.881 93.4612 114.706 92.8596 115.317 92.5159C116.271 91.983 117.414 91.3986 117.714 90.7025C117.663 90.4618 117.517 90.4532 117.422 90.3243C117.328 90.3415 117.267 90.2642 117.164 90.3071C116.683 90.4446 115.867 91.0462 115.222 91.4072C114.492 91.8197 113.28 92.0861 113.572 92.894Z" fill="#EDEDED"/>
<path fill-rule="evenodd" clip-rule="evenodd" d="M103.035 112.025C103.07 111.192 102.116 111.217 101.617 111.114C100.406 110.856 99.3485 110.728 97.7499 111.02C97.0366 111.149 96.0139 111.226 96.2373 111.939C96.4436 112.601 98.0851 112.008 98.5406 111.957C99.4344 111.853 100.225 111.896 100.844 111.974C101.6 112.06 102.331 112.593 103.035 112.025Z" fill="#EDEDED"/>
<path fill-rule="evenodd" clip-rule="evenodd" d="M92.4814 113.572C92.5158 113.641 92.5416 113.718 92.576 113.787C93.2721 114.423 94.9824 112.996 95.5754 112.481C95.0254 111.346 92.7737 112.962 92.4814 113.572Z" fill="#EDEDED"/>
<path d="M3.91768 58.3366C3.90049 58.3366 3.8833 58.3366 3.86612 58.3366C3.53094 58.3108 3.27311 58.0272 3.27311 57.6834C3.27311 57.5459 3.26452 54.6926 0.497166 53.2918C0.256527 53.1715 0.119018 52.9308 0.136207 52.6644C0.153395 52.4066 0.333875 52.1831 0.583109 52.0972C0.694834 52.0628 3.38484 51.126 3.445 47.843C3.45359 47.4906 3.7372 47.207 4.08957 47.207H4.09816C4.45053 47.2156 4.73414 47.5078 4.73414 47.8602C4.73414 47.9891 4.73414 50.9799 7.4929 52.2347C7.74213 52.3464 7.89682 52.6128 7.86245 52.8964C7.82807 53.1714 7.6304 53.3949 7.35539 53.4551C7.26944 53.4722 5.12947 54.0223 4.55366 57.778C4.50209 58.1046 4.22708 58.3366 3.91768 58.3366ZM2.0957 52.7761C3.03247 53.4894 3.61688 54.3489 3.97784 55.1481C4.52787 53.9363 5.25839 53.2144 5.86858 52.7847C4.99196 52.1401 4.43334 51.3409 4.08097 50.576C3.55672 51.5987 2.80043 52.312 2.0957 52.7761Z" fill="#EDEDED"/>
<path d="M48.5913 21.1411C48.5827 21.1411 48.5742 21.1411 48.5742 21.1411C48.2304 21.1325 47.9554 20.8575 47.9468 20.5223C47.9382 20.3074 47.6975 15.2884 42.6957 13.0797C42.455 12.9765 42.3003 12.7359 42.3089 12.4695C42.3175 12.2117 42.4808 11.9796 42.7215 11.8851C42.9191 11.8077 47.5944 9.93417 47.4053 4.14164C47.4053 4.11586 47.4053 4.09008 47.4053 4.06429C47.4397 3.74631 47.6975 3.49707 48.0241 3.48848C48.3593 3.47988 48.6773 3.7549 48.6859 4.11586C48.6945 4.3565 48.9523 9.5904 53.9112 11.5499C54.169 11.653 54.3323 11.9109 54.3151 12.1859C54.2979 12.4609 54.1003 12.7015 53.8338 12.7703C53.6791 12.8133 49.8891 13.9391 49.2101 20.5739C49.2015 20.8919 48.9265 21.1411 48.5913 21.1411ZM44.3458 12.4695C46.6748 13.8446 47.8952 15.7869 48.5398 17.4112C49.4508 14.386 51.0579 12.8648 52.2095 12.1343C50.0781 10.9225 48.8921 9.1435 48.2304 7.57935C47.371 10.1834 45.549 11.7046 44.3458 12.4695Z" fill="#EDEDED"/>
</g>
<defs>
<clipPath id="clip0_3443_3319">
<rect width="162.853" height="177.497" fill="white" transform="translate(0.136719 0.0332031)"/>
</clipPath>
</defs>
</svg>
