<svg width="18" height="15" viewBox="0 0 18 15" fill="none" xmlns="http://www.w3.org/2000/svg">
<path d="M15.1074 1.7666C13.3887 0.329102 10.8574 0.547852 9.26367 2.17285L8.66992 2.8291L8.04492 2.17285C6.76367 0.860352 4.20117 0.0791016 2.20117 1.7666C0.232422 3.4541 0.138672 6.4541 1.88867 8.2666L7.95117 14.5166C8.13867 14.7041 8.38867 14.7979 8.63867 14.7979C8.91992 14.7979 9.16992 14.7041 9.35742 14.5166L15.4199 8.2666C17.1699 6.4541 17.0762 3.4541 15.1074 1.7666ZM14.7012 7.5791L8.66992 13.8291L2.60742 7.5791C1.41992 6.3291 1.16992 3.98535 2.85742 2.54785C4.57617 1.0791 6.57617 2.1416 7.32617 2.8916L8.66992 4.2666L9.98242 2.8916C10.7012 2.1416 12.7324 1.0791 14.4512 2.54785C16.1387 3.98535 15.8887 6.3291 14.7012 7.5791Z" fill="#333333" fill-opacity="0.8"/>
</svg>
