<svg width="30" height="30" viewBox="0 0 30 30" fill="none" xmlns="http://www.w3.org/2000/svg">
<path d="M14.7098 29.7849C22.7842 29.7849 29.3298 23.2393 29.3298 15.1649C29.3298 7.09052 22.7842 0.544922 14.7098 0.544922C6.63544 0.544922 0.0898438 7.09052 0.0898438 15.1649C0.0898438 23.2393 6.63544 29.7849 14.7098 29.7849Z" fill="url(#paint0_linear_3443_3379)"/>
<path d="M19.2495 9.6543C18.6995 9.6543 18.2495 10.1043 18.2495 10.6543C18.2495 11.2143 18.6995 11.6643 19.2495 11.6643C19.8095 11.6643 20.2595 11.2143 20.2595 10.6543C20.2495 10.1043 19.7995 9.6543 19.2495 9.6543Z" fill="white"/>
<path d="M14.7796 10.9443C12.4496 10.9443 10.5596 12.8343 10.5596 15.1643C10.5596 17.4943 12.4496 19.3843 14.7796 19.3843C17.1096 19.3843 18.9996 17.4943 18.9996 15.1643C18.9996 12.8343 17.1096 10.9443 14.7796 10.9443ZM14.7796 17.8743C13.2896 17.8743 12.0796 16.6643 12.0796 15.1743C12.0796 13.6843 13.2896 12.4743 14.7796 12.4743C16.2696 12.4743 17.4796 13.6843 17.4796 15.1743C17.4796 16.6643 16.2696 17.8743 14.7796 17.8743Z" fill="white"/>
<path d="M18.1296 23.7347H11.2896C8.44965 23.7347 6.13965 21.4247 6.13965 18.5847V11.7447C6.13965 8.90473 8.44965 6.59473 11.2896 6.59473H18.1296C20.9696 6.59473 23.2796 8.90473 23.2796 11.7447V18.5847C23.2796 21.4247 20.9696 23.7347 18.1296 23.7347ZM11.2896 8.20473C9.33965 8.20473 7.74965 9.79473 7.74965 11.7447V18.5847C7.74965 20.5347 9.33965 22.1247 11.2896 22.1247H18.1296C20.0796 22.1247 21.6696 20.5347 21.6696 18.5847V11.7447C21.6696 9.79473 20.0796 8.20473 18.1296 8.20473H11.2896Z" fill="white"/>
<defs>
<linearGradient id="paint0_linear_3443_3379" x1="25.0466" y1="4.82742" x2="4.36885" y2="25.5052" gradientUnits="userSpaceOnUse">
<stop offset="0.0011048" stop-color="#FBE18A"/>
<stop offset="0.2094" stop-color="#FCBB45"/>
<stop offset="0.3765" stop-color="#F75274"/>
<stop offset="0.5238" stop-color="#D53692"/>
<stop offset="0.7394" stop-color="#8F39CE"/>
<stop offset="1" stop-color="#5B4FE9"/>
</linearGradient>
</defs>
</svg>
