<svg width="16" height="13" viewBox="0 0 16 13" fill="none" xmlns="http://www.w3.org/2000/svg">
<path d="M14 0.625H4.375C3.39062 0.625 2.625 1.41797 2.625 2.375V8.5C2.625 9.48438 3.39062 10.25 4.375 10.25H14C14.957 10.25 15.75 9.48438 15.75 8.5V2.375C15.75 1.41797 14.957 0.625 14 0.625ZM14.4375 8.5C14.4375 8.74609 14.2188 8.9375 14 8.9375H13.5625L10.5547 4.5625C10.4727 4.42578 10.3359 4.34375 10.1992 4.34375C10.0352 4.34375 9.89844 4.42578 9.81641 4.5625L8.12109 7.13281L7.49219 6.28516C7.41016 6.17578 7.30078 6.09375 7.16406 6.09375C7 6.09375 6.89062 6.17578 6.80859 6.28516L4.8125 8.9375H4.375C4.12891 8.9375 3.9375 8.74609 3.9375 8.5V2.375C3.9375 2.15625 4.12891 1.9375 4.375 1.9375H14C14.2188 1.9375 14.4375 2.15625 14.4375 2.375V8.5ZM6.125 2.8125C5.63281 2.8125 5.25 3.22266 5.25 3.6875C5.25 4.17969 5.63281 4.5625 6.125 4.5625C6.58984 4.5625 7 4.17969 7 3.6875C7 3.22266 6.58984 2.8125 6.125 2.8125ZM12.4688 12.875H3.28125C1.44922 12.875 0 11.4258 0 9.59375V3.03125C0 2.67578 0.273438 2.375 0.65625 2.375C1.01172 2.375 1.3125 2.67578 1.3125 3.03125V9.59375C1.3125 10.6875 2.1875 11.5625 3.28125 11.5625H12.4688C12.8242 11.5625 13.125 11.8633 13.125 12.2188C13.125 12.6016 12.8242 12.875 12.4688 12.875Z" fill="#777777"/>
</svg>
