<svg width="14" height="14" viewBox="0 0 14 14" fill="none" xmlns="http://www.w3.org/2000/svg">
<path d="M2.40625 5.27148H1.09375C0.464844 5.27148 0 5.76367 0 6.36523V12.0527C0 12.6816 0.464844 13.1465 1.09375 13.1465H2.40625C3.00781 13.1465 3.5 12.6816 3.5 12.0527V6.36523C3.5 5.76367 3.00781 5.27148 2.40625 5.27148ZM2.625 12.0527C2.625 12.1895 2.51562 12.2715 2.40625 12.2715H1.09375C0.957031 12.2715 0.875 12.1895 0.875 12.0527V6.36523C0.875 6.25586 0.957031 6.14648 1.09375 6.14648H2.40625C2.51562 6.14648 2.625 6.25586 2.625 6.36523V12.0527ZM14 6.0918C14 5.16211 13.2344 4.39648 12.3047 4.39648H9.51562C9.81641 3.6582 10.0078 2.94727 10.0078 2.56445C10.0078 1.74414 9.37891 0.896484 8.3125 0.896484C7.19141 0.896484 6.94531 1.7168 6.69922 2.40039C5.96094 4.72461 4.375 5.08008 4.375 5.70898C4.375 5.98242 4.56641 6.14648 4.8125 6.14648C4.92188 6.14648 5.03125 6.11914 5.11328 6.03711C6.53516 4.58789 6.94531 4.50586 7.54688 2.67383C7.79297 1.9082 7.875 1.77148 8.3125 1.77148C8.88672 1.77148 9.13281 2.23633 9.13281 2.56445C9.13281 2.83789 8.88672 3.76758 8.42188 4.64258C8.36719 4.69727 8.36719 4.7793 8.36719 4.83398C8.36719 5.10742 8.58594 5.27148 8.80469 5.27148H12.3047C12.7422 5.27148 13.125 5.6543 13.125 6.0918C13.125 6.50195 12.7695 6.85742 12.3594 6.88477C12.1406 6.91211 11.9492 7.10352 11.9492 7.32227C11.9492 7.65039 12.2773 7.67773 12.2773 8.16992C12.2773 8.55273 12.0039 8.88086 11.6211 8.96289C11.457 8.99023 11.2656 9.12695 11.2656 9.37305C11.2656 9.61914 11.457 9.67383 11.457 10.0293C11.457 10.877 10.582 10.6309 10.582 11.2051C10.582 11.3145 10.6367 11.3418 10.6367 11.4785C10.6367 11.916 10.2539 12.2715 9.81641 12.2715H8.28516C6.04297 12.2715 5.33203 10.5215 4.8125 10.5215C4.56641 10.5215 4.375 10.7402 4.375 10.959C4.34766 11.4238 6.125 13.1465 8.28516 13.1465H9.81641C10.7461 13.1465 11.5117 12.4082 11.5117 11.4785C12.0039 11.1777 12.332 10.6309 12.332 10.0293C12.332 9.89258 12.3047 9.75586 12.2773 9.64648C12.7969 9.3457 13.1523 8.79883 13.1523 8.16992C13.1523 7.97852 13.125 7.75977 13.043 7.5957C13.6172 7.32227 14 6.74805 14 6.0918Z" fill="#333333" fill-opacity="0.8"/>
</svg>
