<svg width="31" height="30" viewBox="0 0 31 30" fill="none" xmlns="http://www.w3.org/2000/svg">
<path d="M15.5399 29.7849C23.6143 29.7849 30.1599 23.2393 30.1599 15.1649C30.1599 7.09052 23.6143 0.544922 15.5399 0.544922C7.46551 0.544922 0.919922 7.09052 0.919922 15.1649C0.919922 23.2393 7.46551 29.7849 15.5399 29.7849Z" fill="url(#paint0_linear_3443_3390)"/>
<path d="M9.41004 12.4448H12.24V21.5448H9.41004V12.4448ZM10.83 7.9248C11.74 7.9248 12.47 8.65481 12.47 9.56481C12.47 10.4648 11.74 11.2048 10.83 11.2048C9.92004 11.2048 9.19004 10.4648 9.19004 9.56481C9.18004 8.65481 9.92004 7.9248 10.83 7.9248Z" fill="white"/>
<path d="M14.0198 12.4448H16.7298V13.6848H16.7698C17.1498 12.9648 18.0698 12.2148 19.4498 12.2148C22.3098 12.2148 22.8398 14.0948 22.8398 16.5448V21.5448H20.0098V17.1248C20.0098 16.0648 19.9898 14.7148 18.5398 14.7148C17.0698 14.7148 16.8398 15.8648 16.8398 17.0548V21.5448H14.0098V12.4448H14.0198Z" fill="white"/>
<defs>
<linearGradient id="paint0_linear_3443_3390" x1="25.8797" y1="4.82742" x2="5.20193" y2="25.5052" gradientUnits="userSpaceOnUse">
<stop stop-color="#007AB5"/>
<stop offset="1" stop-color="#0046E5"/>
</linearGradient>
</defs>
</svg>
