<svg width="13" height="17" viewBox="0 0 13 17" fill="none" xmlns="http://www.w3.org/2000/svg">
<path d="M6.86914 0.5C10.1816 0.5 12.8691 3.1875 12.8691 6.5C12.8691 8.9375 12.0254 9.59375 7.46289 16.1875C7.30664 16.4062 7.08789 16.5 6.86914 16.5C6.61914 16.5 6.40039 16.4062 6.24414 16.1875C1.68164 9.625 0.869141 8.9375 0.869141 6.5C0.869141 3.1875 3.52539 0.5 6.86914 0.5ZM6.86914 14.4375C7.40039 13.6562 7.90039 12.9375 8.33789 12.3438C11.0566 8.46875 11.3691 7.96875 11.3691 6.5C11.3691 4.03125 9.33789 2 6.86914 2C4.36914 2 2.36914 4.03125 2.36914 6.5C2.36914 7.96875 2.65039 8.46875 5.36914 12.3438C5.80664 12.9375 6.30664 13.6562 6.86914 14.4375ZM6.86914 4C8.24414 4 9.36914 5.09375 9.36914 6.5C9.36914 7.875 8.24414 9 6.86914 9C5.46289 9 4.36914 7.875 4.36914 6.5C4.36914 5.09375 5.46289 4 6.86914 4ZM6.86914 7.5C7.40039 7.5 7.86914 7.0625 7.86914 6.5C7.86914 5.96875 7.40039 5.5 6.86914 5.5C6.30664 5.5 5.86914 5.96875 5.86914 6.5C5.86914 7.0625 6.30664 7.5 6.86914 7.5Z" fill="#AAAAAA"/>
</svg>
