<svg width="31" height="20" viewBox="0 0 31 20" fill="none" xmlns="http://www.w3.org/2000/svg">
<path d="M19.8184 18.9785C19.5254 18.7441 19.4082 18.3926 19.4082 17.9824C19.4082 17.6309 19.5254 17.2793 19.8184 17.0449L25.3848 11.4199H1.5957C0.775391 11.4199 0.189453 10.834 0.189453 10.0137C0.189453 9.25195 0.775391 8.60742 1.5957 8.60742H25.3848L19.8184 3.04102C19.2324 2.51367 19.2324 1.63477 19.8184 1.10742C20.3457 0.521484 21.2246 0.521484 21.8105 1.10742L29.7793 9.07617C30.3066 9.60352 30.3066 10.4824 29.7793 11.0098L21.8105 18.9785C21.2246 19.5645 20.3457 19.5645 19.8184 18.9785Z" fill="#777777"/>
</svg>
