<svg width="21" height="21" viewBox="0 0 21 21" fill="none" xmlns="http://www.w3.org/2000/svg">
<path d="M19.6875 18.9507C20.0781 19.3413 20.0781 19.9272 19.6875 20.2788C19.5312 20.4741 19.2969 20.5522 19.0625 20.5522C18.7891 20.5522 18.5547 20.4741 18.3594 20.2788L13.125 15.0444C11.7188 16.1772 9.96094 16.8022 8.08594 16.8022C3.63281 16.8022 0 13.1694 0 8.67725C0 4.22412 3.59375 0.552246 8.08594 0.552246C12.5391 0.552246 16.2109 4.22412 16.2109 8.67725C16.2109 10.5913 15.5859 12.3491 14.4531 13.7163L19.6875 18.9507ZM1.875 8.67725C1.875 12.1538 4.64844 14.9272 8.125 14.9272C11.5625 14.9272 14.375 12.1538 14.375 8.67725C14.375 5.23975 11.5625 2.42725 8.125 2.42725C4.64844 2.42725 1.875 5.23975 1.875 8.67725Z" fill="white"/>
</svg>
