<svg width="25" height="42" viewBox="0 0 25 42" fill="none" xmlns="http://www.w3.org/2000/svg">
<path d="M11.0715 0.661603C11.9635 0.56551 12.8024 0.585121 13.6722 0.661603C14.7029 0.826332 15.72 1.03519 16.7102 1.3872C22.0917 3.29728 25.4023 9.05694 24.4092 14.7627C24.048 16.8365 23.0482 18.6289 22.057 20.4164C20.5583 23.1178 18.7368 25.6182 17.2217 28.3137C15.2625 31.7975 13.7618 35.4539 12.9931 39.3947C12.9228 39.7555 12.8275 40.1105 12.7138 40.4596L12.5318 41.0165L12.2303 40.1634C12.1648 39.9771 12.1079 39.7869 12.0607 39.5947C11.9211 39.027 11.7814 38.4583 11.6408 37.8906C10.6227 33.7772 8.84456 30.008 6.64264 26.4291C5.09282 23.9101 3.42452 21.4676 2.02882 18.8505C1.15229 17.2081 0.494412 15.5049 0.359562 13.6282C-0.030542 8.22153 3.2444 3.14726 8.26855 1.33915C9.18072 1.01165 10.1227 0.825352 11.0715 0.661603Z" fill="#D3427A"/>
<ellipse cx="12.4564" cy="13.244" rx="9.64581" ry="9.94031" fill="white"/>
<path d="M12.8824 6.30371C12.8849 6.30371 12.8872 6.30371 12.8897 6.30409C13.0773 6.31443 13.2417 6.33434 13.4282 6.37606C13.9426 6.49091 14.4582 6.6004 14.9598 6.79372C17.5174 7.77873 19.3542 10.5006 19.3885 13.3388C19.4209 16.0205 18.3278 18.0629 16.2401 19.5766C16.1852 19.6164 16.1288 19.6531 16.0717 19.6891C15.8262 19.8438 15.5727 19.8836 15.4061 19.5995C15.2484 19.33 15.3545 19.0758 15.601 18.9216C16.0864 18.618 16.5076 18.2397 16.8998 17.819C19.54 14.9831 18.8663 10.0826 15.5723 8.12403C14.6126 7.55363 13.5992 7.21483 12.4858 7.24048C11.7292 7.25809 11.3717 7.70408 11.4646 8.49154C11.5545 9.25374 11.8611 9.91947 12.2448 10.5653C12.8971 11.6625 13.5218 12.7772 14.1601 13.8836C14.1604 13.8844 14.1608 13.8848 14.1612 13.8855C14.222 13.9889 14.379 13.9498 14.3886 13.8289C14.3956 13.7374 14.3782 13.6474 14.3768 13.5628C14.3602 12.3849 14.5397 11.2429 14.9403 10.1396C15.0442 9.85363 15.206 9.62432 15.5343 9.74797C15.8874 9.88081 15.848 10.1718 15.7448 10.4757C15.0567 12.5047 15.1518 14.5367 15.7466 16.5645C15.8318 16.8551 15.8881 17.1334 15.5741 17.2792C15.2712 17.4197 15.0807 17.2226 14.9281 16.9573C13.6684 14.766 12.3963 12.5824 11.1447 10.3861C10.7799 9.74567 10.5849 9.04319 10.593 8.28444C10.6041 7.26115 10.9877 6.73821 11.9057 6.42085C11.922 6.41511 11.9525 6.40439 11.9691 6.3998C12.1582 6.34582 12.3867 6.31711 12.5827 6.30524C12.5861 6.30371 12.5886 6.30371 12.5916 6.30371H12.8824Z" fill="#D3427A"/>
<path d="M10.5574 12.9823C10.5633 13.8643 10.5519 14.7073 10.3912 15.5403C10.2987 16.0188 10.1498 16.4778 10.0009 16.9372C9.90176 17.2423 9.69059 17.3993 9.37771 17.2718C9.06077 17.1428 9.09725 16.8848 9.18865 16.6099C9.8686 14.5683 9.81884 12.5248 9.19086 10.4832C9.10315 10.1984 9.05229 9.91817 9.36813 9.76543C9.69907 9.60541 9.88555 9.82668 10.0425 10.0989C11.2499 12.1941 12.4609 14.2869 13.6682 16.3825C14.022 16.9966 14.2641 17.66 14.3677 18.3652C14.5648 19.7066 13.7751 20.7226 12.4694 20.7153C9.96994 20.7011 7.99091 19.5699 6.65017 17.4035C4.80123 14.4167 5.27517 10.7125 7.72077 8.2751C8.0683 7.92864 8.45416 7.63081 8.86544 7.36704C9.12821 7.1986 9.36518 7.15113 9.5535 7.46237C9.74882 7.78509 9.56566 7.98262 9.31874 8.14264C8.33217 8.78272 7.56672 9.63335 7.04672 10.7164C5.90979 13.0841 6.3325 15.9446 8.0742 17.82C9.25167 19.0879 10.6665 19.7965 12.3798 19.7965C13.23 19.7965 13.5764 19.3988 13.4887 18.5194C13.4261 17.8885 13.1862 17.3208 12.8703 16.7799C12.1778 15.5939 11.499 14.3999 10.8128 13.2101C10.7663 13.1297 10.731 13.0321 10.5574 12.9823Z" fill="#D3427A"/>
</svg>
