<svg width="31" height="20" viewBox="0 0 31 20" fill="none" xmlns="http://www.w3.org/2000/svg">
<path d="M10.5859 0.785156C10.8789 1.07812 11.0547 1.42969 11.0547 1.78125C11.0547 2.19141 10.8789 2.54297 10.5859 2.77734L5.01953 8.34375H28.8672C29.6289 8.34375 30.2734 8.98828 30.2734 9.75C30.2734 10.5703 29.6289 11.1562 28.8672 11.1562H5.01953L10.5859 16.7812C11.1719 17.3086 11.1719 18.1875 10.5859 18.7148C10.0586 19.3008 9.17969 19.3008 8.65234 18.7148L0.683594 10.7461C0.0976562 10.2188 0.0976562 9.33984 0.683594 8.8125L8.65234 0.84375C9.17969 0.257812 10.0586 0.257812 10.5859 0.785156Z" fill="#D3427A"/>
</svg>
