<svg width="31" height="20" viewBox="0 0 31 20" fill="none" xmlns="http://www.w3.org/2000/svg">
<path d="M20.2153 18.9785C19.9224 18.7441 19.8052 18.3926 19.8052 17.9824C19.8052 17.6309 19.9224 17.2793 20.2153 17.0449L25.7817 11.4199H1.99268C1.17236 11.4199 0.586426 10.834 0.586426 10.0137C0.586426 9.25195 1.17236 8.60742 1.99268 8.60742H25.7817L20.2153 3.04102C19.6294 2.51367 19.6294 1.63477 20.2153 1.10742C20.7427 0.521484 21.6216 0.521484 22.2075 1.10742L30.1763 9.07617C30.7036 9.60352 30.7036 10.4824 30.1763 11.0098L22.2075 18.9785C21.6216 19.5645 20.7427 19.5645 20.2153 18.9785Z" fill="#777"/>
</svg>
