<svg width="15" height="13" viewBox="0 0 15 13" fill="none" xmlns="http://www.w3.org/2000/svg">
<path d="M7.61328 0.422852C3.73047 0.422852 0.613281 2.96582 0.613281 6.11035C0.613281 7.39551 1.16016 8.59863 2.0625 9.55566C1.65234 10.6221 0.804688 11.5518 0.804688 11.5518C0.613281 11.7432 0.585938 12.0166 0.667969 12.2627C0.75 12.5361 0.996094 12.6729 1.26953 12.6729C2.9375 12.6729 4.25 11.9893 5.07031 11.415C5.83594 11.6611 6.71094 11.7979 7.61328 11.7979C11.4688 11.7979 14.5859 9.25488 14.5859 6.1377C14.5859 3.02051 11.4688 0.422852 7.61328 0.422852ZM7.61328 10.9229C6.82031 10.9229 6.05469 10.8135 5.31641 10.5947C5.07031 10.5127 4.76953 10.54 4.55078 10.7041C3.94922 11.1416 2.96484 11.6611 1.73438 11.7979C2.0625 11.3877 2.55469 10.6768 2.85547 9.88379C2.99219 9.58301 2.91016 9.25488 2.69141 8.98145C1.89844 8.13379 1.48828 7.14941 1.48828 6.11035C1.48828 3.45801 4.22266 1.29785 7.58594 1.29785C10.9492 1.29785 13.6836 3.45801 13.6836 6.11035C13.6836 8.7627 10.9766 10.9229 7.61328 10.9229ZM10.0469 3.43066C9.82812 3.21191 9.58203 3.0752 9.28125 3.04785C8.92578 3.02051 8.57031 3.12988 8.32422 3.37598L4.90625 6.79395C4.85156 6.84863 4.82422 6.93066 4.79688 7.0127L4.46875 8.68066C4.41406 8.98145 4.66016 9.22754 4.98828 9.17285L6.65625 8.84473C6.73828 8.81738 6.82031 8.79004 6.875 8.73535L10.2383 5.37207C10.457 5.18066 10.5938 4.90723 10.6211 4.60645C10.6484 4.25098 10.5391 3.92285 10.2656 3.67676L10.0469 3.43066ZM6.35547 8.02441L5.45312 8.18848L5.61719 7.31348L7.99609 4.93457L8.73438 5.67285L6.35547 8.02441ZM9.66406 4.74316L9.33594 5.04395L8.625 4.33301L8.92578 4.03223C9.0625 3.89551 9.28125 3.89551 9.39062 4.03223L9.66406 4.27832C9.77344 4.41504 9.77344 4.60645 9.66406 4.74316Z" fill="#333333" fill-opacity="0.8"/>
</svg>
