<svg width="12" height="13" viewBox="0 0 12 13" fill="none" xmlns="http://www.w3.org/2000/svg">
<path d="M11.8613 6.54785C11.8613 6.93066 11.5605 7.2041 11.2051 7.2041H6.83008V11.5791C6.83008 11.9619 6.5293 12.2627 6.17383 12.2627C5.79102 12.2627 5.51758 11.9619 5.51758 11.5791V7.2041H1.14258C0.759766 7.2041 0.486328 6.93066 0.486328 6.5752C0.486328 6.19238 0.759766 5.8916 1.14258 5.8916H5.51758V1.5166C5.51758 1.16113 5.79102 0.887695 6.17383 0.887695C6.5293 0.887695 6.83008 1.16113 6.83008 1.5166V5.8916H11.2051C11.5605 5.8916 11.8613 6.19238 11.8613 6.54785Z" fill="#333333" fill-opacity="0.8"/>
</svg>
