<svg width="38" height="29" viewBox="0 0 38 29" fill="none" xmlns="http://www.w3.org/2000/svg">
<g clip-path="url(#clip0_3443_3223)">
<path d="M6.70166 2.04721C3.44346 5.21635 1.15752 9.60268 0.296586 14.3155C-0.00771129 16.0151 -0.0967738 19.0433 0.118461 20.4905C0.341117 21.9972 0.905179 23.4593 1.71416 24.6319C3.72549 27.5487 7.41416 28.8253 10.895 27.8159C12.2606 27.4226 13.3665 26.7546 14.4427 25.6784C15.4892 24.6319 16.0458 23.7413 16.4837 22.4351C17.2036 20.2901 17.0478 17.9597 16.0606 15.9632C14.8657 13.5362 12.4759 11.7624 9.90791 11.3839C8.83916 11.228 8.95049 11.3245 9.00245 10.575C9.11377 9.01635 9.7001 7.43549 10.8134 5.64682C11.4665 4.61518 11.5259 4.76362 9.64073 2.87846C7.65166 0.896818 7.83721 0.948773 6.70166 2.04721ZM9.50713 5.32026C8.77979 6.51518 8.16377 8.02924 7.90401 9.31323C7.74073 10.0925 7.71104 11.5991 7.85205 11.9999C7.99307 12.3784 8.1712 12.4749 8.90596 12.5269C11.6001 12.7421 13.9083 14.3304 15.029 16.7499C15.5263 17.8187 15.6228 18.3233 15.6153 19.7335C15.6153 20.8913 15.5931 21.0546 15.4075 21.6632C14.6579 24.1273 12.706 26.0198 10.2419 26.6804C9.3587 26.9179 7.58487 26.9253 6.73877 26.6878C3.80713 25.8788 1.80323 23.4519 1.33565 20.1491C1.22432 19.3327 1.23916 16.7648 1.37276 15.7257C1.57315 14.1003 1.90713 12.6679 2.41182 11.2355C3.45088 8.28901 5.21729 5.41674 7.41416 3.12338L7.75557 2.77455L8.77979 3.79877L9.81143 4.83041L9.50713 5.32026Z" fill="#D3427A"/>
<path d="M27.4979 2.35136C23.9131 6.00293 21.6791 10.8568 21.1447 16.156C21.0186 17.4326 21.1002 20.1193 21.2858 21.0322C22.1541 25.1959 25.2268 27.9643 29.1752 28.135C31.5576 28.2389 33.658 27.467 35.3576 25.8564C36.7084 24.5725 37.5545 23.0287 37.8885 21.2178C38.0592 20.3197 38.0072 18.5014 37.792 17.685C36.9459 14.5084 34.5857 12.1928 31.4315 11.458C31.0826 11.3764 30.6744 11.3096 30.5186 11.3096C30.0584 11.3096 30.0287 11.2576 30.0881 10.5303C30.2143 9.00879 30.7709 7.50215 31.8916 5.6541C32.2924 5.00097 32.3666 4.83027 32.3295 4.65215C32.2924 4.50371 31.8174 3.96933 30.7783 2.93027C29.9471 2.10644 29.2197 1.39395 29.1604 1.35684C29.101 1.31973 28.9377 1.29004 28.7967 1.29004C28.5592 1.29004 28.4479 1.38652 27.4979 2.35136ZM30.3924 5.66894C29.2791 7.6209 28.6705 9.91426 28.8635 11.4506C28.9822 12.408 29.0342 12.4525 29.9916 12.5267C33.0865 12.7717 35.5729 14.7682 36.4932 17.7443C36.6787 18.3455 36.6936 18.4939 36.6936 19.6963C36.6936 20.8986 36.6787 21.0471 36.4932 21.6482C35.8326 23.7783 34.5264 25.3072 32.5596 26.2275C31.5131 26.7174 30.86 26.8584 29.576 26.8584C28.6483 26.8584 28.3588 26.8287 27.8318 26.6877C25.2861 26.0049 23.3193 23.9342 22.644 21.24C22.4065 20.3049 22.3471 19.6443 22.3397 18.1377C22.3397 14.8795 22.9928 11.9924 24.4104 9.0459C25.4494 6.88613 26.5479 5.28301 28.3217 3.33847L28.8338 2.78183L29.858 3.79863L30.8748 4.81543L30.3924 5.66894Z" fill="#D3427A"/>
</g>
<defs>
<clipPath id="clip0_3443_3223">
<rect width="38" height="28" fill="white" transform="translate(0 0.723633)"/>
</clipPath>
</defs>
</svg>
