<svg width="13" height="13" viewBox="0 0 13 13" fill="none" xmlns="http://www.w3.org/2000/svg">
<path d="M10.7969 8.29785C10.0859 8.29785 9.48438 8.65332 9.07422 9.14551L5 7.12207C5.05469 6.93066 5.10938 6.7666 5.10938 6.54785C5.10938 6.35645 5.05469 6.16504 5 6.00098L9.04688 3.97754C9.48438 4.46973 10.0859 4.79785 10.7969 4.79785C12 4.79785 12.9844 3.84082 12.9844 2.61035C12.9844 1.40723 12 0.422852 10.7969 0.422852C9.56641 0.422852 8.60938 1.40723 8.60938 2.61035C8.60938 2.8291 8.63672 2.99316 8.69141 3.18457L4.61719 5.20801C4.20703 4.71582 3.60547 4.36035 2.92188 4.36035C1.69141 4.36035 0.734375 5.34473 0.734375 6.54785C0.734375 7.77832 1.69141 8.73535 2.92188 8.73535C3.60547 8.73535 4.20703 8.40723 4.61719 7.91504L8.69141 9.93848C8.63672 10.1025 8.60938 10.2939 8.60938 10.4854C8.60938 11.7158 9.56641 12.6729 10.7969 12.6729C12 12.6729 12.9844 11.7158 12.9844 10.4854C12.9844 9.28223 12 8.29785 10.7969 8.29785ZM10.7969 1.29785C11.5078 1.29785 12.1094 1.89941 12.1094 2.61035C12.1094 3.34863 11.5078 3.92285 10.7969 3.92285C10.0586 3.92285 9.48438 3.34863 9.48438 2.61035C9.48438 1.89941 10.0586 1.29785 10.7969 1.29785ZM2.92188 7.86035C2.18359 7.86035 1.60938 7.28613 1.60938 6.54785C1.60938 5.83691 2.18359 5.23535 2.92188 5.23535C3.63281 5.23535 4.23438 5.83691 4.23438 6.54785C4.23438 7.28613 3.63281 7.86035 2.92188 7.86035ZM10.7969 11.7979C10.0586 11.7979 9.48438 11.2236 9.48438 10.4854C9.48438 9.77441 10.0586 9.17285 10.7969 9.17285C11.5078 9.17285 12.1094 9.77441 12.1094 10.4854C12.1094 11.2236 11.5078 11.7979 10.7969 11.7979Z" fill="#333333" fill-opacity="0.8"/>
</svg>
