<svg width="31" height="30" viewBox="0 0 31 30" fill="none" xmlns="http://www.w3.org/2000/svg">
<path d="M15.4598 29.7849C23.5342 29.7849 30.0798 23.2393 30.0798 15.1649C30.0798 7.09052 23.5342 0.544922 15.4598 0.544922C7.38544 0.544922 0.839844 7.09052 0.839844 15.1649C0.839844 23.2393 7.38544 29.7849 15.4598 29.7849Z" fill="url(#paint0_linear_3443_3370)"/>
<path d="M6.50977 19.895C6.50977 19.805 6.50977 19.705 6.50977 19.615C6.61977 19.485 6.74976 19.365 6.92976 19.335C8.39976 19.045 9.38978 18.105 10.1298 16.875C10.7498 15.835 10.6498 15.605 9.49977 15.195C9.42977 15.175 9.36977 15.155 9.29977 15.125C9.04977 15.025 8.80976 14.915 8.59976 14.735C8.07976 14.285 8.38977 13.645 8.99977 13.495C9.43977 13.385 9.82977 13.675 10.2598 13.725C10.5498 13.765 10.6598 13.665 10.6298 13.355C10.5398 12.565 10.5398 11.775 10.5798 10.975C10.6498 9.465 11.3898 8.305 12.6598 7.565C14.4998 6.475 16.4198 6.465 18.2798 7.545C19.4398 8.225 20.1798 9.255 20.3498 10.625C20.4598 11.525 20.4098 12.415 20.3398 13.315C20.3098 13.705 20.3898 13.775 20.7698 13.685C21.2498 13.575 21.6498 13.325 22.1498 13.545C22.4198 13.665 22.6498 13.915 22.6398 14.205C22.6398 14.405 22.5198 14.585 22.3698 14.715C22.1398 14.915 21.8398 15.025 21.5598 15.135C21.3398 15.225 21.1198 15.295 20.9098 15.385C20.4798 15.585 20.3498 15.855 20.5498 16.285C21.2498 17.775 22.2898 18.905 23.9598 19.295C24.1598 19.345 24.3298 19.425 24.4498 19.595C24.4498 19.685 24.4498 19.785 24.4498 19.875C24.2898 20.205 24.0098 20.385 23.6898 20.505C23.3598 20.625 23.0298 20.765 22.6798 20.795C22.1898 20.825 21.9398 21.035 21.8698 21.545C21.7998 22.025 21.6498 22.095 21.1598 22.055C21.0398 22.045 20.9298 22.025 20.8098 22.005C19.8498 21.835 18.9498 21.935 18.1598 22.565C18.0098 22.685 17.8398 22.795 17.6698 22.905C16.3298 23.775 14.9498 23.875 13.5498 23.055C13.1698 22.835 12.7998 22.575 12.4298 22.335C12.1198 22.135 11.7898 22.025 11.4198 21.965C10.8398 21.875 10.2798 22.005 9.70976 22.065C9.41976 22.095 9.13977 22.015 9.11977 21.715C9.07977 20.985 8.63977 20.815 8.02977 20.745C7.74977 20.715 7.45977 20.595 7.19977 20.485C6.91977 20.375 6.64977 20.195 6.50977 19.895Z" fill="white"/>
<defs>
<linearGradient id="paint0_linear_3443_3370" x1="25.7961" y1="4.82742" x2="5.11835" y2="25.5052" gradientUnits="userSpaceOnUse">
<stop stop-color="#FEFB01"/>
<stop offset="1" stop-color="#FCBB45"/>
</linearGradient>
</defs>
</svg>
