<svg width="92" height="77" viewBox="0 0 92 77" fill="none" xmlns="http://www.w3.org/2000/svg">
<g clip-path="url(#clip0_1719_7266)">
<path d="M40.6333 0.00585938C41.1413 0.0492972 41.6496 0.089871 42.1571 0.136173C44.781 0.375797 47.3546 0.875571 49.8769 1.63311C52.2388 2.34291 54.5076 3.27754 56.6902 4.4222C56.7539 4.45561 56.8143 4.49666 56.8809 4.52148C57.0985 4.60263 57.1037 4.73008 57.0189 4.92961C56.073 7.1478 55.1339 9.36838 54.1976 11.5909C54.1276 11.7575 54.0562 11.788 53.8952 11.6968C51.4381 10.3021 48.8333 9.27387 46.0886 8.59605C44.6454 8.23948 43.183 7.99412 41.7038 7.8409C40.3113 7.69674 38.9155 7.65712 37.5188 7.70534C34.7271 7.80128 31.9973 8.27194 29.3331 9.11301C25.7394 10.2472 22.4629 11.9794 19.5016 14.3002C16.6506 16.5352 14.2658 19.1892 12.3534 22.2627C10.1358 25.8266 8.72323 29.6858 8.07348 33.8248C7.76825 35.771 7.64894 37.7314 7.73279 39.698C7.98052 45.5206 9.73523 50.8587 12.9873 55.7037C14.0195 57.2412 15.1915 58.667 16.4867 59.9945C19.1087 62.6828 22.1222 64.8213 25.5271 66.4104C28.382 67.7426 31.3758 68.608 34.5014 69.0305C36.2308 69.2644 37.9668 69.3565 39.7081 69.2988C42.3373 69.2114 44.9161 68.7933 47.4385 68.0438C50.4294 67.1555 53.223 65.8462 55.8172 64.1191C58.0731 62.617 60.0961 60.8489 61.8877 58.8178C63.7119 56.75 65.2314 54.4802 66.4393 52.0052C67.8323 49.1512 68.759 46.1526 69.2262 43.0131C69.4945 41.2074 69.6129 39.3916 69.5544 37.5677C69.4806 35.2631 69.162 32.9909 68.5759 30.7579C68.4887 30.4252 68.4902 30.4257 68.8313 30.3584C71.1409 29.9011 73.4505 29.4438 75.7601 28.9861C76.0931 28.9202 76.0941 28.9188 76.1765 29.2491C76.6576 31.1823 76.9791 33.1408 77.1621 35.1242C77.3102 36.7271 77.3471 38.3333 77.2824 39.9386C77.1444 43.364 76.5684 46.7178 75.544 49.9942C74.4999 53.3337 73.0236 56.4712 71.1208 59.4092C69.9583 61.204 68.6493 62.8876 67.2017 64.4643C64.6458 67.2481 61.7473 69.6138 58.4986 71.5523C54.7026 73.8172 50.6355 75.3905 46.2995 76.2684C44.4825 76.6359 42.6487 76.8798 40.7953 76.9691C40.7407 76.972 40.6865 76.9901 40.6324 77.0011C39.3386 77.0011 38.0449 77.0011 36.7511 77.0011C36.697 76.9901 36.6428 76.9715 36.5882 76.9686C34.6155 76.8698 32.6653 76.6054 30.7318 76.2063C26.679 75.37 22.861 73.9213 19.2807 71.8554C14.8312 69.2873 11.0453 65.9622 7.92254 61.8938C5.02598 58.1195 2.90279 53.9494 1.54819 49.3928C0.828 46.9684 0.352667 44.4972 0.128896 41.9783C0.0848125 41.4804 0.0426458 40.9821 0 40.4842C0 39.1954 0 37.9066 0 36.6177C0.0115 36.5557 0.0311458 36.4936 0.0335417 36.4316C0.0670833 35.517 0.166271 34.6082 0.279354 33.7012C0.59225 31.1832 1.15288 28.7202 1.95596 26.3139C3.11171 22.8499 4.73225 19.6149 6.8171 16.612C8.85596 13.6764 11.2523 11.0668 14.019 8.79844C18.0018 5.53297 22.4576 3.14054 27.392 1.63788C29.8966 0.875093 32.453 0.373888 35.0611 0.135218C35.5446 0.091303 36.0285 0.0488199 36.5125 0.00585938C37.8863 0.00585938 39.2596 0.00585938 40.6333 0.00585938Z" fill="#D3427A"/>
<path d="M91.9992 0.0530183C91.6748 0.146099 91.3797 0.306963 91.0778 0.451119C88.7998 1.53993 86.6129 2.79151 84.4768 4.13283C80.7422 6.478 77.2035 9.09095 73.8168 11.9096C72.1133 13.3273 70.4564 14.7975 68.8392 16.3136C67.4899 17.5785 66.1654 18.8688 64.8779 20.1958C62.1074 23.0512 59.4758 26.0284 56.9817 29.1268C53.3899 33.5885 50.1028 38.2626 47.0893 43.129C45.1099 46.3258 43.2589 49.5946 41.5243 52.9293C39.8448 56.158 38.2837 59.4421 36.8237 62.7749C36.621 63.2374 36.6516 63.2026 36.3618 62.8488C33.746 59.6578 31.1302 56.4663 28.5135 53.2763C25.4823 49.5812 22.4506 45.8866 19.4189 42.1915C18.1357 40.6273 16.8549 39.0611 15.5683 37.4998C15.4543 37.3613 15.4605 37.2735 15.5789 37.137C17.6517 34.7484 19.7184 32.355 21.7865 29.9626C23.0213 28.5344 24.2556 27.1057 25.4895 25.677C25.6615 25.4775 25.6797 25.4761 25.8349 25.6947C28.3932 29.2991 30.951 32.9044 33.5098 36.5088C34.2707 37.5804 35.0364 38.6482 35.7925 39.7232C35.9013 39.8779 35.9612 39.8912 36.0838 39.738C37.4279 38.0583 38.8448 36.4396 40.29 34.8462C41.382 33.6424 42.4999 32.4624 43.6298 31.2934C45.613 29.2413 47.6567 27.2508 49.7545 25.3157C53.2538 22.0875 56.8936 19.0244 60.701 16.1603C64.2152 13.5164 67.8507 11.0519 71.6399 8.81553C76.0454 6.21594 80.6152 3.95049 85.4011 2.12896C87.3858 1.37381 89.3974 0.696471 91.4439 0.124619C91.5665 0.0902507 91.6863 0.0458582 91.8071 0.00576174C91.8699 0.0281967 91.9561 -0.0457908 91.9992 0.0530183Z" fill="#D3427A"/>
</g>
<defs>
<clipPath id="clip0_1719_7266">
<rect width="92" height="77" fill="white"/>
</clipPath>
</defs>
</svg>
