<svg width="10" height="10" viewBox="0 0 10 10" fill="none" xmlns="http://www.w3.org/2000/svg">
<path d="M8.86328 9.01562C8.69922 9.17969 8.39844 9.17969 8.23438 9.01562L4.625 5.37891L0.988281 9.01562C0.824219 9.17969 0.523438 9.17969 0.359375 9.01562C0.195312 8.85156 0.195312 8.55078 0.359375 8.38672L3.99609 4.75L0.359375 1.14062C0.195312 0.976562 0.195312 0.675781 0.359375 0.511719C0.523438 0.347656 0.824219 0.347656 0.988281 0.511719L4.625 4.14844L8.23438 0.511719C8.39844 0.347656 8.69922 0.347656 8.86328 0.511719C9.02734 0.675781 9.02734 0.976562 8.86328 1.14062L5.22656 4.75L8.86328 8.38672C9.02734 8.55078 9.02734 8.85156 8.86328 9.01562Z" fill="#FF0000" fill-opacity="0.5"/>
</svg>
