<svg width="30" height="30" viewBox="0 0 30 30" fill="none" xmlns="http://www.w3.org/2000/svg">
<path d="M14.62 29.7849C22.6944 29.7849 29.24 23.2393 29.24 15.1649C29.24 7.09052 22.6944 0.544922 14.62 0.544922C6.54559 0.544922 0 7.09052 0 15.1649C0 23.2393 6.54559 29.7849 14.62 29.7849Z" fill="url(#paint0_linear_3443_3373)"/>
<path d="M22.6998 10.155C22.1898 10.385 21.6298 10.525 21.0898 10.615C21.3498 10.575 21.7298 10.105 21.8798 9.91503C22.1098 9.62503 22.3098 9.29503 22.4198 8.93503C22.4298 8.90503 22.4398 8.87503 22.4198 8.85503C22.3898 8.84503 22.3598 8.84503 22.3298 8.86503C21.7198 9.19503 21.0898 9.42503 20.4198 9.59503C20.3598 9.60503 20.3198 9.59503 20.2898 9.56503C20.2298 9.50503 20.1798 9.44503 20.1198 9.39503C19.8398 9.15503 19.5398 8.96503 19.1898 8.82503C18.7398 8.64503 18.2498 8.56503 17.7698 8.59503C17.2998 8.62503 16.8398 8.75503 16.4198 8.97503C15.9998 9.19503 15.6298 9.49503 15.3298 9.86503C15.0198 10.245 14.7998 10.695 14.6798 11.165C14.5698 11.625 14.5798 12.075 14.6498 12.535C14.6598 12.615 14.6498 12.625 14.5798 12.615C11.9498 12.225 9.77982 11.285 8.00982 9.27503C7.92982 9.18503 7.88983 9.18503 7.82983 9.28503C7.05983 10.445 7.42983 12.305 8.39983 13.225C8.52983 13.345 8.65982 13.465 8.79982 13.585C8.74982 13.595 8.10983 13.525 7.52983 13.225C7.44983 13.175 7.40982 13.205 7.40982 13.295C7.39982 13.425 7.40983 13.535 7.42983 13.675C7.57983 14.845 8.38982 15.935 9.50982 16.365C9.63982 16.425 9.78983 16.465 9.92983 16.495C9.67983 16.555 9.40982 16.595 8.68982 16.535C8.59982 16.515 8.55983 16.565 8.59983 16.645C9.14983 18.135 10.3298 18.575 11.2098 18.835C11.3298 18.855 11.4498 18.855 11.5698 18.885C11.5598 18.895 11.5598 18.895 11.5498 18.905C11.2598 19.355 10.2398 19.685 9.76982 19.855C8.90982 20.155 7.96983 20.295 7.05983 20.205C6.90983 20.185 6.87982 20.185 6.83982 20.205C6.79982 20.225 6.82983 20.265 6.87983 20.305C7.05983 20.425 7.24982 20.535 7.43982 20.635C8.01982 20.945 8.61983 21.185 9.24983 21.355C12.5098 22.255 16.1698 21.595 18.6198 19.165C20.5398 17.255 21.2098 14.625 21.2098 11.995C21.2098 11.895 21.3298 11.835 21.3998 11.785C21.8998 11.405 22.2998 10.965 22.6698 10.455C22.7498 10.345 22.7498 10.245 22.7498 10.205C22.7498 10.195 22.7498 10.195 22.7498 10.195C22.7698 10.115 22.7698 10.125 22.6998 10.155Z" fill="white"/>
<defs>
<linearGradient id="paint0_linear_3443_3373" x1="24.9632" y1="4.82742" x2="4.2855" y2="25.5052" gradientUnits="userSpaceOnUse">
<stop stop-color="#33CCFF"/>
<stop offset="1" stop-color="#337FFF"/>
</linearGradient>
</defs>
</svg>
