<svg width="30" height="30" viewBox="0 0 30 30" fill="none" xmlns="http://www.w3.org/2000/svg">
<path d="M15.37 29.7849C23.4444 29.7849 29.99 23.2393 29.99 15.1649C29.99 7.09052 23.4444 0.544922 15.37 0.544922C7.29559 0.544922 0.75 7.09052 0.75 15.1649C0.75 23.2393 7.29559 29.7849 15.37 29.7849Z" fill="url(#paint0_linear_3443_3376)"/>
<path d="M23.2002 13.0452C23.2002 11.1052 21.6302 9.53516 19.6902 9.53516H10.7102C8.77019 9.53516 7.2002 11.1052 7.2002 13.0452V17.2252C7.2002 19.1652 8.77019 20.7352 10.7102 20.7352H19.6902C21.6302 20.7352 23.2002 19.1652 23.2002 17.2252V13.0452ZM17.9202 15.4452L13.8902 17.4352C13.7302 17.5252 13.2002 17.4052 13.2002 17.2252V13.1352C13.2002 12.9552 13.7402 12.8352 13.9002 12.9252L17.7502 15.0252C17.9202 15.1252 18.0902 15.3552 17.9202 15.4452Z" fill="white"/>
<defs>
<linearGradient id="paint0_linear_3443_3376" x1="25.7128" y1="4.82742" x2="5.0351" y2="25.5052" gradientUnits="userSpaceOnUse">
<stop stop-color="#FF0000"/>
<stop offset="1" stop-color="#850000"/>
</linearGradient>
</defs>
</svg>
