<svg width="186" height="53" viewBox="0 0 186 53" fill="none" xmlns="http://www.w3.org/2000/svg">
<g clip-path="url(#clip0_7246_921)">
<path d="M27.89 0C27.8998 0 27.9082 0 27.918 0.00140785C28.6289 0.0394199 29.2518 0.112628 29.9585 0.266084C31.9083 0.68844 33.8623 1.09109 35.7632 1.80205C45.4562 5.42445 52.4173 15.4343 52.5472 25.8721C52.6701 35.7341 48.5275 43.245 40.6153 48.8116C40.4072 48.9581 40.1935 49.0932 39.977 49.2255C39.0468 49.7943 38.0859 49.9407 37.4546 48.8961C36.8568 47.905 37.259 46.9702 38.1934 46.4028C40.0329 45.2864 41.6293 43.8954 43.1154 42.3482C53.1213 31.9188 50.5681 13.8969 38.0845 6.69434C34.4475 4.59664 30.6066 3.35069 26.3872 3.44501C23.5198 3.50977 22.165 5.14992 22.517 8.04587C22.8578 10.8489 24.0198 13.2972 25.4738 15.6722C27.9459 19.7071 30.3133 23.8068 32.7324 27.8755C32.7338 27.8783 32.7352 27.8797 32.7366 27.8825C32.967 28.2626 33.562 28.119 33.5983 27.6741C33.6249 27.3377 33.5592 27.0068 33.5536 26.6957C33.4908 22.3637 34.171 18.1641 35.6892 14.1067C36.083 13.055 36.6962 12.2117 37.9406 12.6664C39.2787 13.155 39.1292 14.2249 38.7381 15.3428C36.1305 22.8044 36.4909 30.2773 38.7451 37.7347C39.0678 38.8032 39.2815 39.8267 38.0915 40.3631C36.9434 40.8798 36.2213 40.1548 35.6431 39.1791C30.8692 31.1206 26.0478 23.0902 21.3047 15.0133C19.9219 12.658 19.1831 10.0746 19.2138 7.28423C19.2557 3.52104 20.7097 1.59791 24.1888 0.430803C24.2503 0.409685 24.3662 0.370265 24.4291 0.353371C25.1456 0.154864 26.0115 0.0492748 26.7545 0.00563141C26.7671 0 26.7769 0 26.7881 0H27.89Z" fill="#D3427A"/>
<path d="M19.0788 24.5616C19.1011 27.8053 19.0578 30.9054 18.4489 33.9689C18.0983 35.7287 17.534 37.4167 16.9698 39.1061C16.5941 40.2282 15.7938 40.8054 14.608 40.3366C13.4068 39.8622 13.5451 38.9133 13.8915 37.9024C16.4684 30.3943 16.2798 22.8792 13.8999 15.3712C13.5674 14.3237 13.3747 13.2932 14.5717 12.7314C15.8259 12.1429 16.5326 12.9567 17.1276 13.9577C21.7032 21.6628 26.2927 29.3596 30.8682 37.0662C32.2091 39.3243 33.1267 41.7642 33.5192 44.3574C34.2664 49.2905 31.2733 53.027 26.3248 53.0002C16.8525 52.9481 9.35223 48.7879 4.27108 40.8209C-2.73612 29.8368 -0.939974 16.2145 8.32846 7.25066C9.64554 5.97656 11.1079 4.88125 12.6666 3.91124C13.6624 3.29178 14.5605 3.11721 15.2742 4.26179C16.0144 5.44861 15.3203 6.17506 14.3845 6.76355C10.6456 9.11747 7.74464 12.2457 5.77391 16.2285C1.46513 24.9361 3.06713 35.4556 9.66788 42.3526C14.1303 47.0154 19.4922 49.6214 25.9854 49.6214C29.2076 49.6214 30.5205 48.1586 30.1881 44.9248C29.9506 42.6046 29.0414 40.5168 27.8444 38.5275C25.22 34.166 22.6473 29.7749 20.0467 25.3993C19.8707 25.1036 19.7366 24.7446 19.0788 24.5616Z" fill="#D3427A"/>
<path d="M185.965 27.1547C185.987 31.6303 184.852 35.0697 181.811 37.5278C176.847 41.543 169.823 39.5495 167.27 33.4323C165.505 29.2046 165.645 24.9571 167.889 20.9137C169.812 17.4476 172.832 15.6835 176.772 15.9229C180.765 16.165 183.346 18.5344 184.923 22.1005C185.715 23.8913 186.124 25.7807 185.965 27.1547ZM181.619 28.8807C181.614 25.0683 181.255 23.7632 180.023 21.9147C178.095 19.0202 174.015 18.9948 172.074 21.864C169.941 25.0176 169.928 30.3168 172.046 33.4985C173.706 35.9932 176.924 36.4817 179.185 34.5178C181.25 32.7242 181.6 30.2633 181.619 28.8807Z" fill="#D3427A"/>
<path d="M155.926 39.5774C150.795 39.59 147.419 36.3745 146.89 31.1936C146.546 27.8331 146.719 24.6063 148.071 21.4696C150.859 14.9991 158.137 14.6865 162.537 17.7472C163.334 18.3019 163.326 18.8538 162.554 19.4226C161.466 20.225 160.263 20.515 158.967 20.1223C154.232 18.6919 152.13 20.9909 151.193 24.8921C151.101 25.275 150.844 25.7283 151.264 26.0099C151.612 26.2422 151.928 25.8564 152.21 25.6805C154.749 24.0854 157.385 24.1389 160.061 25.2229C162.948 26.3928 164.234 28.7538 164.287 31.7159C164.343 34.7752 162.812 37.0672 160.161 38.5341C158.858 39.2564 157.418 39.5633 155.926 39.5774ZM155.643 28.1808C154.019 28.0823 152.544 28.5117 151.696 30.0913C150.998 31.3935 151.069 32.7732 151.838 34.0347C153.109 36.1155 157.13 36.5195 158.873 34.7822C159.985 33.6728 160.443 31.6343 159.766 30.2616C158.94 28.5891 157.436 28.1118 155.643 28.1808Z" fill="#D3427A"/>
<path d="M107.504 32.9369C107.505 34.6193 107.52 36.3031 107.497 37.9855C107.486 38.7218 107.664 39.7129 106.6 39.7945C105.453 39.8832 103.971 40.4253 103.321 39.0216C102.774 37.8447 102.375 38.184 101.682 38.726C98.4392 41.2615 93.2058 40.2169 91.4934 38.1361C88.538 34.5418 90.0939 29.4018 94.5829 28.215C96.9335 27.5941 99.2842 27.7377 101.647 28.1713C103.147 28.4473 103.39 28.1122 102.854 26.6931C102.052 24.5743 99.6319 23.5522 96.7114 24.1068C96.0662 24.2293 95.4293 24.4152 94.7798 24.494C93.8706 24.6052 93.0884 24.3152 92.4851 23.5845C91.3607 22.2231 91.5507 21.4911 93.2449 20.9687C95.622 20.2367 98.0062 19.6806 100.55 20.0902C105.111 20.8237 107.405 23.3705 107.499 28.0404C107.53 29.6735 107.502 31.3052 107.504 32.9369ZM98.157 36.7282C100.935 36.7353 103.034 35.0825 103.136 32.8665C103.178 31.957 102.836 31.3826 101.977 31.1714C100.248 30.7491 98.509 30.4492 96.7575 31.0771C95.9293 31.3742 95.2072 31.7712 94.8133 32.6455C93.7966 34.9051 95.2743 36.7212 98.157 36.7282Z" fill="#D3427A"/>
<path d="M68.8068 30.0873C68.8054 27.5856 68.7775 25.0838 68.8222 22.5821C68.8361 21.7796 68.4395 20.7012 69.5973 20.3577C70.7608 20.0113 71.9815 20.3422 72.5974 21.3164C73.4103 22.6004 73.867 22.316 74.8531 21.5079C77.1674 19.6115 79.8211 19.313 82.5558 20.5477C85.1928 21.7374 86.1523 24.0674 86.2249 26.762C86.3283 30.5885 86.2668 34.4193 86.2473 38.2486C86.2389 39.7522 85.6634 40.1422 84.2332 39.7058C82.7122 39.2412 81.9008 38.2205 81.8672 36.5254C81.8198 34.1771 81.8351 31.8288 81.8547 29.4805C81.863 28.443 81.6954 27.442 81.3393 26.4818C80.7736 24.9599 79.0585 23.89 77.504 24.0279C75.5221 24.2039 74.1072 25.2922 73.7525 27.0464C73.1491 30.0282 73.5639 33.0537 73.462 36.058C73.3879 38.2346 72.5806 39.396 70.7915 39.7804C69.3096 40.0986 68.8277 39.7367 68.8166 38.2064C68.7914 35.4991 68.8068 32.7932 68.8068 30.0873Z" fill="#D3427A"/>
<path d="M136.758 16.2366C138.531 16.2366 140.305 16.2155 142.077 16.2465C142.802 16.2591 143.781 15.9621 144.102 16.8561C144.467 17.8669 144.46 18.9636 143.605 19.859C142.059 21.4752 140.525 23.1041 138.997 24.7372C138.571 25.1934 137.992 25.7298 139.131 26.0099C143.763 27.1503 144.798 30.2645 144.528 33.1463C144.222 36.4125 141.634 38.9171 137.891 39.4718C135.641 39.8055 133.427 39.4957 131.409 38.3835C129.789 37.491 129.165 35.7804 129.782 34.2219C130.179 33.2195 130.632 32.7944 131.621 33.7939C133.309 35.4988 135.426 36.0747 137.767 35.6058C139.316 35.2961 140.412 33.9305 140.418 32.479C140.422 31.1007 139.401 29.7633 137.922 29.3859C136.945 29.1368 135.933 29.0143 134.929 28.9002C134.218 28.8186 133.462 28.8805 133.169 28.0189C132.857 27.1052 132.82 26.2422 133.574 25.4665C134.92 24.0826 136.23 22.662 137.543 21.2472C137.807 20.9628 138.281 20.6995 138.106 20.2532C137.925 19.7872 137.398 19.9674 137.017 19.9604C135.599 19.935 134.18 19.9364 132.761 19.9449C131.419 19.9519 130.436 19.2846 129.699 18.2358C128.884 17.0757 129.268 16.2831 130.676 16.2535C132.701 16.2099 134.728 16.2422 136.754 16.2422C136.758 16.2408 136.758 16.238 136.758 16.2366Z" fill="#D3427A"/>
<path d="M124.862 25.6287C124.862 29.2511 124.857 32.8721 124.866 36.4945C124.868 37.618 124.659 38.6175 123.634 39.2835C122.824 39.81 121.927 40.0916 121.044 39.7283C120.138 39.3553 120.472 38.4007 120.469 37.6827C120.447 31.0517 120.462 24.4208 120.455 17.7884C120.452 15.7076 121.283 14.135 123.174 13.2255C124.399 12.637 124.843 12.9144 124.853 14.3039C124.878 18.0798 124.862 21.8542 124.862 25.6287Z" fill="#D3427A"/>
<path d="M116.296 29.258C116.298 31.6542 116.257 34.0503 116.313 36.4437C116.345 37.8487 115.682 38.7723 114.57 39.4311C112.76 40.5053 111.7 39.9028 111.696 37.8163C111.689 33.5857 111.676 29.3552 111.703 25.126C111.717 22.9888 112.675 21.4529 114.678 20.5927C115.778 20.1196 116.308 20.3449 116.301 21.612C116.284 24.1602 116.295 26.7098 116.296 29.258Z" fill="#D3427A"/>
<path d="M116.296 14.5714C116.266 16.6142 114.888 18.3627 113.015 18.8428C112.166 19.061 111.793 18.8301 111.7 17.9446C111.486 15.9159 112.921 13.6478 114.854 13.0396C115.974 12.6877 116.319 13.0537 116.296 14.5714Z" fill="#D3427A"/>
</g>
<defs>
<clipPath id="clip0_7246_921">
<rect width="186" height="53" fill="white"/>
</clipPath>
</defs>
</svg>
