<svg width="53" height="53" viewBox="0 0 53 53" fill="none" xmlns="http://www.w3.org/2000/svg">
<path d="M27.89 0C27.8998 0 27.9082 0 27.918 0.00140785C28.6289 0.0394199 29.2518 0.112628 29.9585 0.266084C31.9083 0.68844 33.8623 1.09109 35.7632 1.80205C45.4562 5.42445 52.4173 15.4343 52.5472 25.8721C52.6701 35.7341 48.5275 43.245 40.6153 48.8116C40.4072 48.9581 40.1935 49.0932 39.977 49.2255C39.0468 49.7943 38.0859 49.9407 37.4546 48.8961C36.8568 47.905 37.259 46.9702 38.1934 46.4028C40.0329 45.2864 41.6293 43.8954 43.1154 42.3482C53.1213 31.9188 50.5681 13.8969 38.0845 6.69434C34.4475 4.59664 30.6066 3.35069 26.3872 3.44501C23.5198 3.50977 22.165 5.14992 22.517 8.04587C22.8578 10.8489 24.0198 13.2972 25.4738 15.6722C27.9459 19.7071 30.3133 23.8068 32.7324 27.8755C32.7338 27.8783 32.7352 27.8797 32.7366 27.8825C32.967 28.2626 33.562 28.119 33.5983 27.6741C33.6249 27.3377 33.5592 27.0068 33.5536 26.6957C33.4908 22.3637 34.171 18.1641 35.6892 14.1067C36.083 13.055 36.6962 12.2117 37.9406 12.6664C39.2787 13.155 39.1292 14.2249 38.7381 15.3428C36.1305 22.8044 36.4909 30.2773 38.7451 37.7347C39.0678 38.8032 39.2815 39.8267 38.0915 40.3631C36.9434 40.8798 36.2213 40.1548 35.6431 39.1791C30.8692 31.1206 26.0478 23.0902 21.3047 15.0133C19.9219 12.658 19.1831 10.0746 19.2138 7.28423C19.2557 3.52104 20.7097 1.59791 24.1888 0.430803C24.2503 0.409685 24.3662 0.370265 24.4291 0.353371C25.1456 0.154864 26.0115 0.0492748 26.7545 0.00563141C26.7671 0 26.7769 0 26.7881 0H27.89Z" fill="#D3427A"/>
<path d="M19.0788 24.5614C19.1011 27.8051 19.0578 30.9051 18.4489 33.9686C18.0983 35.7285 17.534 37.4165 16.9698 39.1059C16.5941 40.2279 15.7938 40.8052 14.608 40.3364C13.4068 39.8619 13.5451 38.913 13.8915 37.9022C16.4684 30.3941 16.2798 22.879 13.8999 15.3709C13.5674 14.3235 13.3747 13.2929 14.5717 12.7312C15.8259 12.1427 16.5326 12.9564 17.1276 13.9574C21.7032 21.6626 26.2927 29.3593 30.8682 37.0659C32.2091 39.3241 33.1267 41.7639 33.5192 44.3572C34.2664 49.2903 31.2733 53.0267 26.3248 53C16.8525 52.9479 9.35223 48.7877 4.27108 40.8207C-2.73612 29.8366 -0.939974 16.2142 8.32846 7.25042C9.64554 5.97631 11.1079 4.881 12.6666 3.91099C13.6624 3.29154 14.5605 3.11696 15.2742 4.26155C16.0144 5.44837 15.3203 6.17482 14.3845 6.7633C10.6456 9.11723 7.74464 12.2455 5.77391 16.2283C1.46513 24.9359 3.06713 35.4553 9.66788 42.3524C14.1303 47.0152 19.4922 49.6211 25.9854 49.6211C29.2076 49.6211 30.5205 48.1584 30.1881 44.9245C29.9506 42.6044 29.0414 40.5166 27.8444 38.5273C25.22 34.1657 22.6473 29.7746 20.0467 25.399C19.8707 25.1034 19.7366 24.7444 19.0788 24.5614Z" fill="#D3427A"/>
</svg>